<svg width="19" height="19" viewBox="0 0 19 19" xmlns="http://www.w3.org/2000/svg">
    <path d="M0 9.5C0 4.25273 4.25273 0 9.5 0C14.7473 0 19 4.25273 19 9.5C19 14.7473 14.7473 19 9.5 19C4.25273 19 0 14.7473 0 9.5ZM13.7973 7.85977C14.2018 7.45527 14.2018 6.79473 13.7973 6.39023C13.3928 5.98574 12.7322 5.98574 12.3277 6.39023L8.3125 10.4055L6.67227 8.76523C6.26777 8.36074 5.60723 8.36074 5.20273 8.76523C4.79824 9.16973 4.79824 9.83027 5.20273 10.2348L7.57773 12.6098C7.98223 13.0143 8.64277 13.0143 9.04727 12.6098L13.7973 7.85977Z"/>
</svg>
