<svg width="14" height="14" viewBox="0 0 14 14" xmlns="http://www.w3.org/2000/svg">
    <path d="M13.9754 10.0379C13.9754 11.2459 12.8002 12.2254 11.375 12.2254C9.94984 12.2254 8.77461 11.2459 8.77461 10.0625C8.77461 8.85445 9.94984 7.89961 11.375 7.89961C11.6834 7.89961 11.9752 7.95211 12.2503 8.03354V4.04961L5.25 6.125L5.24994 11.8152C5.22539 13.0211 4.07422 14 2.60039 14C1.12656 14 0 13.0211 0 11.8125C0 10.6045 1.17523 9.64961 2.60039 9.64961C2.90883 9.64961 3.20059 9.70211 3.47539 9.78354V3.45898C3.47539 3.10434 3.75047 2.73082 4.08816 2.62445L12.8136 0.0407422C12.909 0.0180879 13.0512 0 13.125 0C13.6079 0 13.9992 0.392109 14 0.874727L13.9754 10.0379Z"/>
</svg>
