<svg width="9" height="10" viewBox="0 0 9 10" xmlns="http://www.w3.org/2000/svg">
    <path d="M0.056444 5.43973C0.173629 5.17411 0.447842 5 0.75018 5H3.00013V0.714285C3.00013 0.319866 3.33599 -2.38419e-07 3.75012 -2.38419e-07H5.25009C5.66422 -2.38419e-07 6.00007 0.319866 6.00007 0.714285L6.00007 5H8.25003C8.5533 5 8.82681 5.17404 8.94283 5.44085C9.05898 5.70759 8.99488 6.01563 8.78029 6.21875L5.05146 9.79018C4.88447 9.93013 4.69229 10 4.5001 10C4.30792 10 4.11621 9.93025 3.96996 9.79074L0.220035 6.21931C0.00488278 6.01562 -0.0583974 5.70759 0.056444 5.43973Z"/>
</svg>
