<svg width="25" height="20" viewBox="0 0 25 20" xmlns="http://www.w3.org/2000/svg">
    <path d="M18.0556 10.1109C18.0556 13.1795 15.5686 15.6665 12.5 15.6665C9.43143 15.6665 6.94445 13.1795 6.94445 10.1109C6.94445 7.04232 9.43143 4.55534 12.5 4.55534C15.5686 4.55534 18.0556 7.04232 18.0556 10.1109ZM12.5 5.94423C10.1606 5.94423 8.33334 7.77149 8.33334 10.1109C8.33334 12.4112 10.1606 14.2776 12.5 14.2776C14.8003 14.2776 16.6667 12.4112 16.6667 10.1109C16.6667 7.77149 14.8003 5.94423 12.5 5.94423ZM20.8594 3.88694C22.8906 5.77062 24.2491 7.9885 24.8915 9.57704C25.0347 9.91992 25.0347 10.3019 24.8915 10.6447C24.2491 12.1942 22.8906 14.4121 20.8594 16.3349C18.8151 18.2359 16.0069 19.8331 12.5 19.8331C8.99306 19.8331 6.1849 18.2359 4.1415 16.3349C2.11025 14.4121 0.752609 12.1942 0.10682 10.6447C-0.0356065 10.3019 -0.0356065 9.91992 0.10682 9.57704C0.752609 7.9885 2.11025 5.77062 4.1415 3.88694C6.1849 1.98763 8.99306 0.388672 12.5 0.388672C16.0069 0.388672 18.8151 1.98763 20.8594 3.88694ZM1.38889 10.1109C1.96745 11.4998 3.21745 13.5831 5.08681 15.3192C6.95747 17.0553 9.44445 18.4442 12.5 18.4442C15.5556 18.4442 18.0425 17.0553 19.9132 15.3192C21.7839 13.5831 23.0339 11.4998 23.6111 10.1109C23.0339 8.68294 21.7839 6.59961 19.9132 4.90256C18.0425 3.16602 15.5556 1.77756 12.5 1.77756C9.44445 1.77756 6.95747 3.16602 5.08681 4.90256C3.21745 6.59961 1.96745 8.68294 1.38889 10.1109Z"/>
</svg>
