<svg width="9" height="11" viewBox="0 0 9 11" xmlns="http://www.w3.org/2000/svg">
<path d="M9 2.35714C9 3.65848 8.13616 4.71429 7.07143 4.71429C6.49085 4.71429 5.97054 4.4 5.61696 3.90402L3.81496 5.00647C3.84308 5.16607 3.83906 5.33058 3.83906 5.4779C3.83906 5.66942 3.84308 5.83393 3.81496 5.99353L5.61696 7.07388C5.97054 6.6 6.49085 6.26362 7.07143 6.26362C8.13616 6.26362 9 7.31942 9 8.64286C9 9.9442 8.13616 11 7.07143 11C5.98862 11 5.14286 9.9442 5.14286 8.64286C5.14286 8.47344 5.15692 8.30893 5.18504 8.14933L3.38304 7.04688C3.02946 7.54286 2.50915 7.85714 1.92857 7.85714C0.863437 7.85714 0 6.80134 0 5.4779C0 4.17656 0.863437 3.12076 1.92857 3.12076C2.50915 3.12076 3.02946 3.45714 3.38304 3.93103L5.18504 2.85067C5.15692 2.69107 5.14286 2.52656 5.14286 2.35714C5.14286 1.05531 5.98862 0 7.07143 0C8.13616 0 9 1.05531 9 2.35714ZM1.91049 6.67857C2.46094 6.67857 2.87478 6.15067 2.87478 5.5C2.87478 4.84933 2.46094 4.32143 1.91049 4.32143C1.396 4.32143 0.946205 4.84933 0.946205 5.5C0.946205 6.15067 1.396 6.67857 1.91049 6.67857ZM7.07143 1.17857C6.53906 1.17857 6.10714 1.70647 6.10714 2.35714C6.10714 3.00781 6.53906 3.53571 7.07143 3.53571C7.60379 3.53571 8.03571 3.00781 8.03571 2.35714C8.03571 1.70647 7.60379 1.17857 7.07143 1.17857ZM7.07143 9.82143C7.60379 9.82143 8.03571 9.29353 8.03571 8.64286C8.03571 7.99219 7.60379 7.46429 7.07143 7.46429C6.53906 7.46429 6.10714 7.99219 6.10714 8.64286C6.10714 9.29353 6.53906 9.82143 7.07143 9.82143Z"/>
</svg>
