<svg width="15" height="15" viewBox="0 0 15 15" xmlns="http://www.w3.org/2000/svg">
<path d="M15 1.31074V5.60604C15 6.05235 14.6547 6.41141 14.2256 6.41141H10.0955C9.66991 6.41141 9.32111 6.05369 9.32111 5.60671C9.32111 5.39708 9.39959 5.19094 9.54804 5.03658L11.2313 3.28725C10.1891 2.22651 8.77581 1.57919 7.25607 1.57919C4.09719 1.57919 1.57718 4.2 1.57718 7.48523C1.57718 10.7705 4.12526 13.3913 7.25607 13.3913C9.87642 13.3913 10.7118 11.8362 11.3571 11.8362C11.6856 11.8362 12.1322 12.1048 12.1322 12.6419C12.1322 13.4846 9.70896 15 7.22444 15C3.23955 15 0 11.6309 0 7.48658C0 3.34228 3.23955 0 7.22444 0C9.1614 0 10.9673 0.824832 12.2935 2.17953L13.6196 0.800336C13.7681 0.64594 13.9662 0.564799 14.1678 0.564799C14.658 0.505705 15 0.868792 15 1.31074Z"/>
</svg>
