<svg width="15" height="15" viewBox="0 0 15 15" xmlns="http://www.w3.org/2000/svg">
<path d="M6.79688 10.0781V8.20312H4.92188C4.53223 8.20312 4.21875 7.88965 4.21875 7.5C4.21875 7.11035 4.53223 6.79688 4.92188 6.79688H6.79688V4.92188C6.79688 4.53223 7.11035 4.21875 7.5 4.21875C7.88965 4.21875 8.20312 4.53223 8.20312 4.92188V6.79688H10.0781C10.4678 6.79688 10.7812 7.11035 10.7812 7.5C10.7812 7.88965 10.4678 8.20312 10.0781 8.20312H8.20312V10.0781C8.20312 10.4678 7.88965 10.7812 7.5 10.7812C7.11035 10.7812 6.79688 10.4678 6.79688 10.0781ZM15 7.5C15 11.6426 11.6426 15 7.5 15C3.35742 15 0 11.6426 0 7.5C0 3.35742 3.35742 0 7.5 0C11.6426 0 15 3.35742 15 7.5ZM7.5 1.40625C4.13379 1.40625 1.40625 4.13379 1.40625 7.5C1.40625 10.8662 4.13379 13.5938 7.5 13.5938C10.8662 13.5938 13.5938 10.8662 13.5938 7.5C13.5938 4.13379 10.8662 1.40625 7.5 1.40625Z" />
</svg>
