<svg width="13" height="13" viewBox="0 0 13 13" xmlns="http://www.w3.org/2000/svg">
<path d="M0.924439 9.15961C1.03018 8.80118 1.22411 8.47326 1.48871 8.20889L9.21902 0.47659C9.85447 -0.158863 10.8864 -0.158863 11.5219 0.47659L12.5233 1.47891C12.6021 1.55822 12.6708 1.64388 12.7318 1.73413C13.1486 2.36556 13.08 3.224 12.5233 3.7807L4.79124 11.511C4.7582 11.544 4.72516 11.5542 4.68957 11.6076C4.44556 11.8236 4.1558 11.9609 3.84062 12.0753L0.782099 12.9752C0.568082 13.0387 0.336526 12.9803 0.178681 12.7998C0.0208317 12.665 -0.0381833 12.4337 0.024802 12.2177L0.924439 9.15961ZM1.51083 11.4906L3.49748 10.906C3.55594 10.8882 3.6144 10.8424 3.67032 10.8373L2.74766 10.6518C2.54686 10.6111 2.3885 10.4535 2.34834 10.2527L2.16381 9.32992C2.1356 9.38585 2.11247 9.44431 2.09493 9.50278L1.51083 11.4906ZM4.59299 9.98322L9.735 4.84072L8.13622 3.2418L3.01708 8.40717L3.25601 9.72139L4.59299 9.98322Z" />
</svg>
