<svg width="15" height="15" viewBox="0 0 15 15" xmlns="http://www.w3.org/2000/svg">
<path d="M0 0.833333C0 0.373264 0.359933 0 0.803571 0H14.1964C14.6417 0 15 0.373264 15 0.833333C15 1.2934 14.6417 1.66667 14.1964 1.66667H0.803571C0.359933 1.66667 0 1.2934 0 0.833333ZM6.42857 5.27778C6.42857 4.81597 6.78683 4.44444 7.23214 4.44444H14.1964C14.6417 4.44444 15 4.81597 15 5.27778C15 5.73958 14.6417 6.11111 14.1964 6.11111H7.23214C6.78683 6.11111 6.42857 5.73958 6.42857 5.27778ZM14.1964 8.88889C14.6417 8.88889 15 9.26042 15 9.72222C15 10.184 14.6417 10.5556 14.1964 10.5556H7.23214C6.78683 10.5556 6.42857 10.184 6.42857 9.72222C6.42857 9.26042 6.78683 8.88889 7.23214 8.88889H14.1964ZM0 14.1667C0 13.7049 0.359933 13.3333 0.803571 13.3333H14.1964C14.6417 13.3333 15 13.7049 15 14.1667C15 14.6285 14.6417 15 14.1964 15H0.803571C0.359933 15 0 14.6285 0 14.1667ZM0.204241 7.93056C-0.0257813 7.67708 -0.0257813 7.29167 0.204241 7.06945L3.40848 4.36111C3.76004 4.03125 4.25558 4.31944 4.25558 4.78819V10.2118C4.25558 10.6806 3.76004 10.9375 3.40848 10.6389L0.204241 7.93056Z"/>
</svg>
