<svg width="15" height="15" viewBox="0 0 15 15" xmlns="http://www.w3.org/2000/svg">
<path d="M0.803572 15C0.358259 15 0 14.6267 0 14.1667C0 13.7066 0.358259 13.3333 0.803572 13.3333L8.83929 13.3333C9.2846 13.3333 9.64286 13.7066 9.64286 14.1667C9.64286 14.6267 9.2846 15 8.83929 15L0.803572 15ZM0.803572 10.5556C0.358259 10.5556 0 10.184 0 9.72222C0 9.26042 0.358259 8.88889 0.803572 8.88889L14.1964 8.88889C14.6401 8.88889 15 9.26042 15 9.72222C15 10.184 14.6401 10.5556 14.1964 10.5556L0.803572 10.5556ZM0.803572 4.44444L8.83929 4.44444C9.2846 4.44444 9.64286 4.81597 9.64286 5.27778C9.64286 5.73958 9.2846 6.11111 8.83929 6.11111L0.803572 6.11111C0.358259 6.11111 0 5.73958 0 5.27778C0 4.81597 0.358259 4.44444 0.803572 4.44444ZM0.803572 1.66667C0.358259 1.66667 0 1.29514 0 0.833333C0 0.371527 0.358259 -9.53674e-07 0.803572 -9.53674e-07L14.1964 -9.53674e-07C14.6401 -9.53674e-07 15 0.371527 15 0.833333C15 1.29514 14.6401 1.66667 14.1964 1.66667L0.803572 1.66667Z" />
</svg>
