<svg width="11" height="15" viewBox="0 0 11 15" xmlns="http://www.w3.org/2000/svg">
<path d="M10.25 5.625C9.83437 5.625 9.5 5.93848 9.5 6.30176V7.5C9.5 9.68994 7.48438 11.4521 5.1 11.2324C3.025 11.042 1.5 9.29004 1.5 7.33008V6.30176C1.5 5.93848 1.16406 5.625 0.75 5.625C0.335938 5.625 0 5.93848 0 6.30176V7.24365C0 9.86953 2 12.2124 4.75 12.5669V13.5938H3.22187C2.83437 13.5938 2.5 13.9072 2.5 14.2705C2.5 14.6338 2.83437 15 3.22187 15H7.72188C8.16563 15 8.5 14.6865 8.5 14.2969C8.5 13.9072 8.16563 13.5938 7.75 13.5938H6.25V12.6044C8.93125 12.2607 11 10.1045 11 7.5V6.30176C11 5.93848 10.6656 5.625 10.25 5.625ZM5.5 10.3125C7.15625 10.3125 8.5 9.05273 8.5 7.5V2.8125C8.5 1.28613 7.15625 0 5.5 0C3.84375 0 2.5 1.25977 2.5 2.8125V7.5C2.5 9.05273 3.84375 10.3125 5.5 10.3125ZM4 2.8125C4 2.03613 4.67188 1.40625 5.5 1.40625C6.32812 1.40625 7 2.03613 7 2.8125V7.5C7 8.27637 6.32812 8.90625 5.5 8.90625C4.67188 8.90625 4 8.27637 4 7.5V2.8125Z"/>
</svg>
