<svg width="13" height="9" viewBox="0 0 13 9" xmlns="http://www.w3.org/2000/svg">
<path d="M2.925 9C1.30955 9 0 7.70424 0 6.10714C0 4.84554 0.815953 3.77277 1.95406 3.37701C1.95142 3.32277 1.95 3.26853 1.95 3.21429C1.95 1.43839 3.40437 0 5.2 0C6.40453 0 7.45469 0.647879 8.01734 1.61116C8.32609 1.38817 8.69984 1.28571 9.1 1.28571C10.1766 1.28571 11.05 2.13147 11.05 3.21429C11.05 3.45937 11.0033 3.69241 10.92 3.90937C12.1062 4.14643 13 5.18504 13 6.42857C13 7.84888 11.8361 9 10.4 9H2.925ZM6.15469 7.23415C6.34562 7.43906 6.65438 7.43906 6.82703 7.23415L8.45203 5.62701C8.65922 5.45625 8.65922 5.15089 8.45203 4.96205C8.27938 4.77522 7.97062 4.77522 7.77969 4.96205L6.9875 5.74754V3.05357C6.9875 2.78638 6.77016 2.57143 6.5 2.57143C6.22984 2.57143 6.0125 2.78638 6.0125 3.05357V5.74754L5.20203 4.96205C5.02938 4.77522 4.72062 4.77522 4.52969 4.96205C4.34078 5.15089 4.34078 5.45625 4.52969 5.62701L6.15469 7.23415Z"/>
</svg>
