<svg width="9" height="11" viewBox="0 0 9 11" xmlns="http://www.w3.org/2000/svg">
<path d="M4.89534 4.49407C5.08926 4.71018 5.20723 5.09082 5.20723 5.50094C5.20723 5.91105 5.08926 6.29169 4.89534 6.4857L0.990324 10.8078C0.789357 11.051 0.53781 11.0608 0.332504 10.852C0.127157 10.6433 0 10.2504 0 9.82308V1.17879C0 0.75247 0.127157 0.359303 0.332504 0.150563C0.53781 -0.0579319 0.789357 -0.0493367 0.990324 0.17291L4.89534 4.49407Z" />
<path d="M8.6881 4.49407C8.88202 4.71018 9 5.09082 9 5.50094C9 5.91105 8.88202 6.29169 8.6881 6.4857L4.78309 10.8078C4.58212 11.051 4.33057 11.0608 4.12527 10.852C3.91992 10.6433 3.79276 10.2504 3.79276 9.82308V1.17879C3.79276 0.75247 3.91992 0.359303 4.12527 0.150563C4.33057 -0.0579319 4.58212 -0.0493367 4.78309 0.17291L8.6881 4.49407Z"/>
</svg>
