<svg width="15" height="15" viewBox="0 0 15 15" xmlns="http://www.w3.org/2000/svg">
<path d="M7.5 2.67857C6.02009 2.67857 4.82143 3.88058 4.82143 5.35714C4.82143 5.65286 5.05711 5.89286 5.35714 5.89286C5.65718 5.89286 5.89286 5.65179 5.89286 5.35714C5.89286 4.47121 6.61071 3.75 7.5 3.75C7.80003 3.75 8.03571 3.51 8.03571 3.21429C8.03571 2.91857 7.7712 2.67857 7.5 2.67857ZM13.9286 11.7857H1.07143C0.482143 11.7857 0 12.2658 0 12.8571V13.9286C0 14.5199 0.482143 15 1.07143 15H13.9286C14.5179 15 15 14.5199 15 13.9286V12.8571C15 12.2645 14.5179 11.7857 13.9286 11.7857ZM12.8571 5.35714C12.8571 2.399 10.4571 0 7.5 0C4.54286 0 2.14286 2.39732 2.14286 5.35714V10.7143H12.8571V5.35714ZM11.25 9.10714H3.75V5.35714C3.75 3.28594 5.43214 1.60714 7.5 1.60714C9.56786 1.60714 11.25 3.28594 11.25 5.35714V9.10714Z" />
</svg>
