<svg width="7" height="10" viewBox="0 0 7 10" xmlns="http://www.w3.org/2000/svg">
<path d="M6.9561 4.56027C6.86495 4.82589 6.65168 5 6.41653 5H4.66656V9.28571C4.66656 9.68013 4.40534 10 4.08324 10H2.9166C2.5945 10 2.33328 9.68013 2.33328 9.28571V5H0.583312C0.347432 5 0.134702 4.82596 0.0444693 4.55915C-0.0458726 4.29241 0.0039795 3.98437 0.170886 3.78125L3.07109 0.209821C3.20097 0.0698661 3.35044 0 3.49992 0C3.6494 0 3.79851 0.0697545 3.91225 0.209263L6.82886 3.78069C6.9962 3.98438 7.04542 4.29241 6.9561 4.56027Z"/>
</svg>