<svg width="21" height="15" viewBox="0 0 21 15" xmlns="http://www.w3.org/2000/svg">
<path d="M20.3292 1.49609C19.9088 1.2068 19.3856 1.16832 18.9335 1.39109L15.1667 3.24219V2.5C15.1667 1.11914 14.1221 0 12.8333 0H2.33333C1.04453 0 0 1.11914 0 2.5V12.5C0 13.8809 1.04453 15 2.33333 15H12.8333C14.1221 15 15.1667 13.8809 15.1667 12.5V11.757L18.9328 13.607C19.1276 13.7029 19.3349 13.7505 19.5413 13.7505C19.8159 13.7505 20.0889 13.6668 20.3284 13.5021C20.7484 13.2148 21 12.7227 21 12.1523V2.8125C21 2.27734 20.7484 1.78906 20.3292 1.49609ZM13.4167 12.5C13.4167 12.8446 13.155 13.125 12.8333 13.125H2.33333C2.0117 13.125 1.75 12.8446 1.75 12.5V2.5C1.75 2.15539 2.0117 1.875 2.33333 1.875H12.8333C13.155 1.875 13.4167 2.15539 13.4167 2.5V12.5ZM19.25 11.6992L15.1667 9.69531V5.30469L19.25 3.29961V11.6992Z"/>
</svg>
