<svg width="20" height="20" viewBox="0 0 20 20" xmlns="http://www.w3.org/2000/svg">
    <path d="M18.125 0H1.875C0.839453 0 0 0.959375 0 2.14286V17.8571C0 19.0402 0.839453 20 1.875 20H18.125C19.1605 20 20 19.0406 20 17.8571V2.14286C20 0.959375 19.1602 0 18.125 0ZM1.875 19.2857C1.18594 19.2857 0.625 18.6446 0.625 17.8571V15.5665L4.77734 10.821C4.89941 10.6815 5.09719 10.6815 5.21914 10.821L8.30625 14.3491L3.98828 19.2857H1.875ZM19.375 17.8571C19.375 18.6446 18.8141 19.2857 18.125 19.2857H4.87109L14.7812 7.95982C14.9033 7.82031 15.1011 7.82031 15.223 7.95982L19.375 12.7098V17.8571ZM19.375 11.7009L15.6629 7.45848C15.2967 7.04134 14.7035 7.04134 14.3371 7.45848L8.75 13.8438L5.62891 10.3125C5.2627 9.89536 4.66953 9.89536 4.30313 10.3125L0.625 14.558V2.14286C0.625 1.35536 1.18594 0.714286 1.875 0.714286H18.125C18.8141 0.714286 19.375 1.35536 19.375 2.14286V11.7009ZM5 3.21429C3.7918 3.21429 2.8125 4.33482 2.8125 5.71429C2.8125 7.09375 3.7918 8.21429 5 8.21429C6.2082 8.21429 7.1875 7.09375 7.1875 5.71429C7.1875 4.33482 6.20703 3.21429 5 3.21429ZM5 7.5C4.13672 7.5 3.4375 6.70089 3.4375 5.71429C3.4375 4.72946 4.13867 3.92857 5 3.92857C5.86133 3.92857 6.5625 4.72768 6.5625 5.71429C6.5625 6.70089 5.86328 7.5 5 7.5Z"/>
</svg>