<svg width="16" height="14" viewBox="0 0 16 14" xmlns="http://www.w3.org/2000/svg">
    <path d="M9.8 0C9.954 0 10.08 0.1253 10.08 0.28C10.08 0.4347 9.954 0.56 9.8 0.56H0.28C0.12537 0.56 0 0.4347 0 0.28C0 0.1253 0.12537 0 0.28 0H9.8ZM15.4 4.48C15.554 4.48 15.68 4.606 15.68 4.76C15.68 4.914 15.554 5.04 15.4 5.04H0.28C0.12537 5.04 0 4.914 0 4.76C0 4.606 0.12537 4.48 0.28 4.48H15.4ZM0 9.24C0 9.086 0.12537 8.96 0.28 8.96H9.8C9.954 8.96 10.08 9.086 10.08 9.24C10.08 9.394 9.954 9.52 9.8 9.52H0.28C0.12537 9.52 0 9.394 0 9.24ZM15.4 13.44C15.554 13.44 15.68 13.566 15.68 13.72C15.68 13.874 15.554 14 15.4 14H0.28C0.12537 14 0 13.874 0 13.72C0 13.566 0.12537 13.44 0.28 13.44H15.4Z"/>
</svg>
