<?xml version="1.0" encoding="UTF-8"?><svg id="a" xmlns="http://www.w3.org/2000/svg" viewBox="0 0 320 94">
    <path d="M14.14,17.12v56.88H6.6V17.12h7.54Zm34.34,0l-23.63,26.52-13.28,13.79-1.25-8.05,10-11.02,19.1-21.25h9.06Zm-7.27,56.88l-21.05-27.73,4.49-5.98,25.55,33.71h-8.98ZM77.89,22.16l-18.83,51.84h-7.7l21.68-56.88h4.96l-.12,5.04Zm15.78,51.84l-18.87-51.84-.12-5.04h4.96l21.76,56.88h-7.73Zm-.98-21.05v6.17h-31.95v-6.17h31.95Zm59.65-9.18v3.59c0,4.27-.53,8.1-1.6,11.48-1.07,3.39-2.6,6.26-4.61,8.63-2,2.37-4.41,4.18-7.23,5.43-2.79,1.25-5.91,1.88-9.38,1.88s-6.45-.62-9.26-1.88c-2.79-1.25-5.21-3.06-7.26-5.43-2.03-2.37-3.61-5.25-4.73-8.63-1.12-3.39-1.68-7.21-1.68-11.48v-3.59c0-4.27,.55-8.09,1.64-11.45,1.12-3.39,2.7-6.26,4.73-8.63,2.03-2.4,4.44-4.22,7.23-5.47,2.81-1.25,5.9-1.88,9.26-1.88s6.59,.62,9.38,1.88c2.81,1.25,5.22,3.07,7.23,5.47,2.03,2.37,3.58,5.25,4.65,8.63,1.09,3.36,1.64,7.17,1.64,11.45Zm-7.46,3.59v-3.67c0-3.39-.35-6.38-1.05-8.98-.68-2.6-1.68-4.79-3.01-6.56-1.33-1.77-2.96-3.11-4.88-4.02-1.9-.91-4.06-1.37-6.49-1.37s-4.47,.46-6.37,1.37c-1.88,.91-3.49,2.25-4.84,4.02-1.33,1.77-2.36,3.96-3.09,6.56-.73,2.6-1.09,5.6-1.09,8.98v3.67c0,3.41,.37,6.43,1.09,9.06,.73,2.6,1.77,4.8,3.12,6.6,1.38,1.77,3.01,3.11,4.88,4.02,1.9,.91,4.02,1.37,6.37,1.37s4.62-.46,6.52-1.37c1.9-.91,3.5-2.25,4.8-4.02,1.33-1.8,2.33-4,3.01-6.6,.68-2.63,1.02-5.65,1.02-9.06Zm53.24,20.51v6.13h-28.44v-6.13h28.44Zm-26.95-50.74v56.88h-7.54V17.12h7.54Zm43.67,0v56.88h-7.54V17.12h7.54Zm44.02,42.5c0-1.33-.21-2.5-.62-3.52-.39-1.04-1.09-1.98-2.11-2.81-.99-.83-2.37-1.63-4.14-2.38-1.75-.76-3.96-1.52-6.64-2.3-2.81-.83-5.35-1.76-7.62-2.77-2.26-1.04-4.2-2.23-5.82-3.55-1.62-1.33-2.85-2.85-3.71-4.57-.86-1.72-1.29-3.68-1.29-5.9s.46-4.26,1.37-6.13c.91-1.88,2.21-3.5,3.91-4.88,1.72-1.41,3.76-2.5,6.13-3.28,2.37-.78,5.01-1.17,7.93-1.17,4.27,0,7.89,.82,10.86,2.46,2.99,1.61,5.27,3.74,6.84,6.37,1.56,2.6,2.34,5.39,2.34,8.36h-7.5c0-2.14-.46-4.02-1.37-5.66-.91-1.67-2.29-2.97-4.14-3.91-1.85-.96-4.19-1.45-7.03-1.45-2.68,0-4.9,.4-6.64,1.21-1.74,.81-3.05,1.9-3.91,3.28-.83,1.38-1.25,2.96-1.25,4.73,0,1.2,.25,2.29,.74,3.28,.52,.96,1.31,1.86,2.38,2.7,1.09,.83,2.47,1.6,4.14,2.3,1.69,.7,3.71,1.38,6.05,2.03,3.23,.91,6.02,1.93,8.36,3.05,2.34,1.12,4.27,2.38,5.78,3.79,1.54,1.38,2.67,2.96,3.4,4.73,.76,1.74,1.13,3.72,1.13,5.94s-.47,4.41-1.41,6.29c-.94,1.88-2.28,3.48-4.02,4.8-1.74,1.33-3.84,2.36-6.29,3.09-2.42,.7-5.13,1.05-8.12,1.05-2.63,0-5.22-.36-7.77-1.09-2.53-.73-4.83-1.82-6.91-3.28-2.06-1.46-3.71-3.26-4.96-5.39-1.22-2.16-1.84-4.66-1.84-7.5h7.5c0,1.95,.38,3.63,1.13,5.04,.76,1.38,1.78,2.53,3.09,3.44,1.33,.91,2.82,1.59,4.49,2.03,1.69,.42,3.45,.62,5.27,.62,2.63,0,4.86-.36,6.68-1.09,1.82-.73,3.2-1.77,4.14-3.12,.96-1.35,1.45-2.96,1.45-4.8Zm38.2-42.5v56.88h-7.42V17.12h7.42Zm18.28,0v6.17h-43.95v-6.17h43.95Z"/>
    <path d="M14.14,17.12h.5v-.5h-.5v.5Zm0,56.88v.5h.5v-.5h-.5Zm-7.54,0h-.5v.5h.5v-.5Zm0-56.88v-.5h-.5v.5h.5Zm41.88,0l.37,.33,.74-.83h-1.12v.5Zm-23.63,26.52l.36,.35h.01l-.37-.35Zm-13.28,13.79l-.49,.08,.15,1,.7-.73-.36-.35Zm-1.25-8.05l-.37-.34-.16,.18,.04,.24,.49-.08Zm10-11.02l.37,.34h0l-.37-.34Zm19.1-21.25v-.5h-.22l-.15,.17,.37,.33Zm1.8,56.88l-.4,.3,.15,.2h.25v-.5Zm-21.05-27.73l-.4-.3-.23,.3,.23,.3,.4-.3Zm4.49-5.98l.4-.3-.4-.53-.4,.53,.4,.3Zm25.55,33.71v.5h1.01l-.61-.8-.4,.3ZM13.64,17.12v56.88h1V17.12h-1Zm.5,56.38H6.6v1h7.54v-1Zm-7.04,.5V17.12h-1v56.88h1Zm-.5-56.38h7.54v-1H6.6v1Zm41.5-.83l-23.63,26.52,.75,.67,23.63-26.52-.75-.67Zm-23.62,26.51l-13.28,13.79,.72,.69,13.28-13.79-.72-.69Zm-12.43,14.06l-1.25-8.05-.99,.15,1.25,8.05,.99-.15Zm-1.37-7.63l10-11.02-.74-.67-10,11.02,.74,.67Zm10-11.02l19.1-21.25-.74-.67-19.1,21.25,.74,.67Zm18.73-21.08h9.06v-1h-9.06v1Zm2.2,56.07l-21.05-27.73-.8,.6,21.05,27.73,.8-.6Zm-21.05-27.13l4.49-5.98-.8-.6-4.49,5.98,.8,.6Zm3.69-5.97l25.55,33.71,.8-.6L25.05,39.99l-.8,.6Zm25.95,32.91h-8.98v1h8.98v-1Zm27.7-51.34l.47,.17,.03-.08v-.08h-.5Zm-18.83,51.82v.5h.35l.12-.33-.47-.17Zm-7.7,0l-.47-.18-.26,.68h.73v-.5Zm21.68-56.88v-.5h-.34l-.12,.32,.47,.18Zm4.96,0h.5v-.5h-.5v.5Zm15.66,56.88l-.47,.17,.12,.33h.35v-.5Zm-18.87-51.84h-.5v.09l.03,.08,.47-.17Zm-.12-5.04v-.5h-.51v.51h.51Zm4.96-.01l.47-.18-.12-.32h-.34v.5Zm21.76,56.88v.5h.73l-.26-.68-.47,.18Zm-8.71-21.05h.5v-.5h-.5v.5Zm0,6.17v.5h.5v-.5h-.5Zm-31.95,0h-.5v.5h.5v-.5Zm0-6.17v-.5h-.5v.5h.5Zm16.68-30.95l-18.83,51.84,.94,.34,18.83-51.84-.94-.34Zm-18.36,51.51h-7.7v1h7.7v-1Zm-7.23,.68l21.68-56.88-.93-.36-21.68,56.88,.93,.36Zm21.21-56.55h4.96v-1h-4.96v1Zm4.46-.51l-.12,5.04,1,.02,.12-5.04-1-.02Zm16.63,56.72l-18.87-51.84-.94,.34,18.87,51.84,.94-.34Zm-18.84-51.68l-.12-5.04-1,.02,.12,5.04,1-.02Zm-.62-4.53h4.96v-1h-4.96v1Zm4.49-.32l21.76,56.87,.93-.36-21.76-56.88-.93,.36Zm22.22,56.2h-7.73v1h7.73v-1Zm-9.21-20.55v6.17h1v-6.17h-1Zm.5,5.67h-31.95v1h31.95v-1Zm-31.45,.5v-6.17h-1v6.17h1Zm-.5-5.67h31.95v-1h-31.95v1Zm85.39,14.03l-.38-.32,.38,.32Zm-7.23,5.43l-.2-.46h0l.2,.46Zm-18.63,0l-.2,.46h0l.2-.46Zm-7.26-5.43l-.38,.33h0l.38-.33Zm-4.77-35.16l-.47-.16h0l.47,.16Zm4.73-8.63l.38,.33h0l-.38-.33Zm7.23-5.47l-.2-.46h0l.2,.46Zm18.63,0l-.21,.46h0l.2-.46Zm7.23,5.47l-.38,.32h0l.38-.32Zm4.65,8.63l-.48,.15h0l.48-.15Zm-6.88,2.38l-.48,.13h0l.48-.13Zm-7.89-10.59l-.22,.45h0l.21-.45Zm-12.85,0l-.22-.45h0l.22,.45Zm-4.84,4.02l-.4-.3h0l.4,.3Zm-3.09,28.28l-.48,.13h0l.48-.13Zm3.12,6.6l-.4,.3h0l.39-.3Zm4.88,4.02l-.22,.45h0l.22-.45Zm17.69-4.02l-.4-.3h0l.4,.3Zm3.01-6.6l.48,.13h0l-.48-.13Zm7.98-12.66v3.59h1v-3.59h-1Zm0,3.59c0,4.23-.53,8.01-1.58,11.33l.95,.3c1.09-3.44,1.62-7.32,1.62-11.63h-1Zm-1.58,11.33c-1.05,3.33-2.56,6.15-4.51,8.46l.76,.65c2.05-2.43,3.62-5.37,4.7-8.81l-.95-.3Zm-4.51,8.46c-1.96,2.31-4.31,4.08-7.05,5.3l.41,.91c2.88-1.28,5.35-3.14,7.41-5.56l-.76-.65Zm-7.05,5.3c-2.71,1.22-5.77,1.83-9.17,1.83v1c3.52,0,6.72-.64,9.58-1.92l-.41-.91Zm-9.17,1.83c-3.3,0-6.31-.61-9.05-1.83l-.41,.91c2.88,1.28,6.04,1.92,9.46,1.92v-1Zm-9.05-1.83c-2.72-1.22-5.08-2.98-7.09-5.3l-.76,.66c2.1,2.42,4.58,4.28,7.44,5.56l.41-.91Zm-7.09-5.3c-1.98-2.31-3.53-5.13-4.63-8.46l-.95,.31c1.14,3.44,2.74,6.38,4.82,8.8l.76-.65Zm-4.63-8.46c-1.1-3.33-1.65-7.1-1.65-11.33h-1c0,4.31,.57,8.2,1.71,11.64l.95-.31Zm-1.65-11.33v-3.59h-1v3.59h1Zm0-3.59c0-4.23,.54-7.99,1.62-11.29l-.95-.31c-1.11,3.42-1.67,7.29-1.67,11.6h1Zm1.62-11.29c1.1-3.33,2.65-6.15,4.63-8.46l-.76-.65c-2.08,2.43-3.68,5.36-4.82,8.8l.95,.31Zm4.63-8.47c1.99-2.34,4.33-4.12,7.05-5.34l-.41-.91c-2.86,1.28-5.33,3.15-7.4,5.6l.76,.65Zm7.05-5.34c2.74-1.22,5.76-1.83,9.06-1.83v-1c-3.42,0-6.58,.64-9.46,1.92l.41,.91Zm9.06-1.83c3.4,0,6.46,.61,9.17,1.83l.41-.91c-2.86-1.28-6.06-1.92-9.58-1.92v1Zm9.17,1.83c2.74,1.22,5.09,2.99,7.05,5.33l.77-.64c-2.05-2.45-4.52-4.32-7.41-5.6l-.41,.91Zm7.05,5.34c1.98,2.31,3.5,5.13,4.55,8.46l.95-.3c-1.08-3.44-2.66-6.38-4.75-8.81l-.76,.65Zm4.55,8.46c1.07,3.3,1.62,7.06,1.62,11.29h1c0-4.31-.55-8.18-1.66-11.6l-.95,.31Zm-4.85,14.88v-3.67h-1v3.67h1Zm0-3.67c0-3.42-.35-6.46-1.07-9.11l-.97,.26c.69,2.55,1.04,5.5,1.04,8.85h1Zm-1.07-9.11c-.69-2.65-1.72-4.9-3.09-6.74l-.8,.6c1.28,1.71,2.26,3.83,2.92,6.39l.97-.25Zm-3.09-6.74c-1.38-1.83-3.07-3.23-5.07-4.18l-.43,.9c1.85,.88,3.42,2.16,4.7,3.87l.8-.6Zm-5.07-4.17c-1.98-.95-4.22-1.42-6.7-1.42v1c2.36,0,4.44,.44,6.27,1.32l.43-.9Zm-6.7-1.42c-2.41,0-4.61,.47-6.58,1.42l.43,.9c1.83-.88,3.87-1.32,6.15-1.32v-1Zm-6.59,1.42c-1.95,.95-3.62,2.34-5.02,4.17l.79,.61c1.31-1.71,2.86-3,4.67-3.88l-.44-.9Zm-5.02,4.17c-1.37,1.83-2.43,4.08-3.17,6.73l.96,.27c.72-2.56,1.72-4.69,3-6.4l-.8-.6Zm-3.17,6.73c-.74,2.66-1.11,5.7-1.11,9.12h1c0-3.35,.36-6.3,1.08-8.85l-.96-.27Zm-1.11,9.12v3.67h1v-3.67h-1Zm0,3.67c0,3.45,.37,6.51,1.11,9.2l.96-.27c-.71-2.58-1.08-5.55-1.08-8.93h-1Zm1.11,9.2c.74,2.65,1.81,4.91,3.21,6.77l.8-.6c-1.31-1.74-2.33-3.88-3.04-6.44l-.96,.27Zm3.21,6.77c1.42,1.83,3.11,3.22,5.06,4.17l.44-.9c-1.8-.88-3.37-2.17-4.71-3.88l-.79,.61Zm5.06,4.17c1.98,.95,4.17,1.42,6.58,1.42v-1c-2.28,0-4.32-.44-6.15-1.32l-.43,.9Zm6.58,1.42c2.51,0,4.76-.47,6.74-1.42l-.43-.9c-1.82,.87-3.92,1.32-6.31,1.32v1Zm6.74-1.42c1.98-.95,3.64-2.34,4.99-4.18l-.8-.59c-1.26,1.71-2.79,2.99-4.62,3.87l.43,.9Zm4.99-4.18c1.37-1.86,2.4-4.12,3.09-6.77l-.97-.25c-.66,2.55-1.64,4.69-2.93,6.43l.8,.59Zm3.09-6.77c.69-2.68,1.03-5.74,1.03-9.19h-1c0,3.38-.34,6.36-1,8.94l.97,.25Zm53.77,11.32h.5v-.5h-.5v.5Zm0,6.13v.5h.5v-.5h-.5Zm-28.44,0h-.5v.5h.5v-.5Zm0-6.13v-.5h-.5v.5h.5Zm1.48-50.74h.5v-.5h-.5v.5Zm0,56.88v.5h.5v-.5h-.5Zm-7.54,0h-.5v.5h.5v-.5Zm0-56.88v-.5h-.5v.5h.5Zm33.99,50.74v6.13h1v-6.13h-1Zm.5,5.63h-28.44v1h28.44v-1Zm-27.94,.5v-6.13h-1v6.13h1Zm-.5-5.63h28.44v-1h-28.44v1Zm.98-51.24v56.88h1V17.12h-1Zm.5,56.38h-7.54v1h7.54v-1Zm-7.04,.5V17.12h-1v56.88h1Zm-.5-56.38h7.54v-1h-7.54v1Zm51.21-.5h.5v-.5h-.5v.5Zm0,56.88v.5h.5v-.5h-.5Zm-7.54,0h-.5v.5h.5v-.5Zm0-56.88v-.5h-.5v.5h.5Zm7.04,0v56.88h1V17.12h-1Zm.5,56.38h-7.54v1h7.54v-1Zm-7.04,.5V17.12h-1v56.88h1Zm-.5-56.38h7.54v-1h-7.54v1Zm50.94,38.48l-.47,.18h0l.46-.18Zm-2.11-2.81l-.32,.38h0l.32-.38Zm-4.14-2.38l-.2,.46h0l.2-.46Zm-6.64-2.3l-.14,.48h0l.14-.48Zm-7.62-2.77l-.21,.45h0l.2-.45Zm-5.55-25.04l.32,.39h0l-.32-.39Zm24.92-1.99l-.24,.44h0l.24-.44Zm6.84,6.37l-.43,.26h0l.43-.26Zm2.34,8.36v.5h.5v-.5h-.5Zm-7.5,0h-.5v.5h.5v-.5Zm-1.37-5.66l-.44,.24h0l.44-.24Zm-4.14-3.91l-.23,.44h0l.23-.44Zm-17.58,3.05l-.42-.26h0l.43,.26Zm-.51,8.01l-.45,.22h0l.44-.22Zm2.38,2.7l-.31,.39h0l.3-.39Zm4.14,2.3l-.19,.46h0l.19-.46Zm6.05,2.03l.14-.48h0l-.13,.48Zm14.14,6.84l-.34,.37h0l.33-.37Zm3.4,4.73l-.46,.19h0l.46-.19Zm-4.3,17.03l-.3-.4,.3,.4Zm-6.29,3.09l.14,.48h0l-.14-.48Zm-15.9-.04l-.14,.48h0l.14-.48Zm-6.91-3.28l-.29,.41h0l.29-.41Zm-4.96-5.39l-.43,.25h0l.43-.25Zm-1.84-7.5v-.5h-.5v.5h.5Zm7.5,0h.5v-.5h-.5v.5Zm1.13,5.04l-.44,.24h0l.44-.24Zm3.09,3.44l-.29,.41h0l.28-.41Zm4.49,2.03l-.13,.48h0l.12-.48Zm16.09-3.59l-.41-.29h0l.41,.29Zm1.95-4.8c0-1.38-.22-2.62-.66-3.71l-.92,.38c.39,.94,.59,2.05,.59,3.33h1Zm-.66-3.69c-.43-1.14-1.19-2.14-2.26-3.02l-.63,.77c.96,.79,1.6,1.66,1.96,2.6l.94-.35Zm-2.26-3.02c-1.04-.88-2.47-1.69-4.27-2.46l-.39,.92c1.74,.74,3.08,1.52,4.01,2.31l.64-.76Zm-4.26-2.46c-1.77-.77-4.01-1.54-6.7-2.33l-.28,.96c2.67,.78,4.86,1.54,6.58,2.28l.4-.92Zm-6.7-2.33c-2.79-.83-5.31-1.75-7.56-2.75l-.41,.91c2.29,1.03,4.85,1.96,7.68,2.8l.28-.96Zm-7.55-2.75c-2.23-1.03-4.14-2.19-5.71-3.49l-.64,.77c1.65,1.36,3.63,2.57,5.93,3.62l.42-.91Zm-5.71-3.49c-1.57-1.29-2.76-2.76-3.58-4.41l-.89,.45c.89,1.79,2.18,3.36,3.84,4.73l.64-.77Zm-3.58-4.41c-.82-1.64-1.24-3.53-1.24-5.67h-1c0,2.28,.44,4.32,1.34,6.12l.89-.45Zm-1.24-5.67c0-2.14,.44-4.11,1.32-5.91l-.9-.44c-.95,1.95-1.42,4.07-1.42,6.35h1Zm1.32-5.91c.88-1.81,2.13-3.38,3.77-4.71l-.63-.77c-1.75,1.42-3.1,3.11-4.04,5.05l.9,.44Zm3.77-4.71c1.67-1.36,3.65-2.43,5.97-3.19l-.31-.95c-2.42,.8-4.52,1.92-6.29,3.37l.63,.77Zm5.97-3.19c2.31-.76,4.9-1.15,7.77-1.15v-1c-2.96,0-5.66,.4-8.09,1.2l.31,.95Zm7.77-1.15c4.21,0,7.74,.81,10.62,2.4l.48-.88c-3.06-1.69-6.77-2.52-11.1-2.52v1Zm10.62,2.4c2.92,1.58,5.13,3.64,6.64,6.18l.86-.51c-1.61-2.72-3.96-4.9-7.03-6.55l-.47,.88Zm6.64,6.18c1.52,2.53,2.27,5.23,2.27,8.1h1c0-3.06-.81-5.94-2.42-8.62l-.86,.51Zm2.77,7.6h-7.5v1h7.5v-1Zm-7,.5c0-2.21-.47-4.18-1.43-5.91l-.87,.49c.87,1.56,1.3,3.36,1.3,5.42h1Zm-1.43-5.9c-.96-1.76-2.42-3.13-4.35-4.11l-.45,.89c1.77,.9,3.07,2.13,3.93,3.7l.88-.48Zm-4.35-4.11c-1.94-1.01-4.37-1.5-7.26-1.5v1c2.79,0,5.04,.47,6.8,1.39l.46-.89Zm-7.26-1.5c-2.73,0-5.02,.41-6.85,1.26l.42,.91c1.66-.77,3.79-1.16,6.43-1.16v-1Zm-6.85,1.26c-1.82,.84-3.2,1.99-4.12,3.47l.85,.53c.8-1.28,2.02-2.32,3.69-3.09l-.42-.91Zm-4.12,3.48c-.88,1.47-1.32,3.13-1.32,4.99h1c0-1.69,.4-3.17,1.18-4.47l-.86-.52Zm-1.32,4.99c0,1.27,.26,2.44,.79,3.5l.9-.45c-.46-.91-.69-1.93-.69-3.06h-1Zm.8,3.52c.56,1.04,1.41,1.99,2.51,2.85l.62-.79c-1.03-.8-1.77-1.65-2.25-2.54l-.88,.48Zm2.52,2.86c1.14,.87,2.56,1.65,4.25,2.37l.39-.92c-1.64-.69-2.98-1.44-4.03-2.24l-.61,.8Zm4.25,2.37c1.72,.71,3.76,1.4,6.11,2.05l.27-.96c-2.33-.65-4.33-1.32-6-2.01l-.38,.92Zm6.11,2.05c3.21,.91,5.97,1.91,8.28,3.02l.43-.9c-2.37-1.14-5.19-2.16-8.44-3.08l-.27,.96Zm8.28,3.02c2.31,1.1,4.19,2.34,5.66,3.7l.68-.73c-1.56-1.45-3.53-2.74-5.91-3.87l-.43,.9Zm5.66,3.71c1.49,1.33,2.57,2.85,3.27,4.55l.92-.38c-.76-1.85-1.94-3.48-3.53-4.91l-.67,.74Zm3.27,4.55c.72,1.67,1.09,3.58,1.09,5.74h1c0-2.27-.39-4.32-1.17-6.14l-.92,.4Zm1.09,5.74c0,2.25-.45,4.27-1.35,6.07l.89,.45c.98-1.95,1.46-4.13,1.46-6.51h-1Zm-1.35,6.07c-.9,1.8-2.19,3.35-3.88,4.63l.6,.8c1.8-1.37,3.2-3.03,4.17-4.98l-.89-.45Zm-3.88,4.63c-1.69,1.29-3.73,2.29-6.13,3l.29,.96c2.5-.74,4.65-1.8,6.45-3.17l-.6-.8Zm-6.13,3c-2.37,.69-5.03,1.03-7.99,1.03v1c3.03,0,5.79-.36,8.26-1.07l-.28-.96Zm-7.99,1.03c-2.58,0-5.13-.36-7.64-1.07l-.27,.96c2.6,.74,5.23,1.11,7.91,1.11v-1Zm-7.64-1.07c-2.47-.71-4.73-1.78-6.77-3.21l-.57,.82c2.13,1.49,4.49,2.61,7.06,3.35l.28-.96Zm-6.76-3.21c-2-1.42-3.6-3.16-4.82-5.24l-.86,.51c1.29,2.2,2.99,4.05,5.1,5.55l.58-.82Zm-4.82-5.23c-1.18-2.08-1.77-4.49-1.77-7.25h-1c0,2.91,.63,5.5,1.9,7.75l.87-.49Zm-2.27-6.75h7.5v-1h-7.5v1Zm7-.5c0,2.02,.39,3.78,1.19,5.28l.88-.47c-.71-1.32-1.07-2.91-1.07-4.8h-1Zm1.19,5.28c.79,1.45,1.87,2.65,3.24,3.61l.57-.82c-1.24-.87-2.22-1.96-2.93-3.27l-.88,.48Zm3.24,3.61c1.38,.95,2.93,1.65,4.65,2.1l.26-.97c-1.61-.43-3.06-1.08-4.34-1.96l-.57,.82Zm4.66,2.1c1.73,.43,3.53,.64,5.39,.64v-1c-1.79,0-3.5-.2-5.15-.61l-.24,.97Zm5.39,.64c2.67,0,4.97-.37,6.86-1.13l-.37-.93c-1.75,.7-3.91,1.06-6.49,1.06v1Zm6.86-1.13c1.9-.76,3.36-1.86,4.37-3.3l-.82-.57c-.87,1.26-2.17,2.25-3.91,2.95l.37,.93Zm4.36-3.3c1.03-1.45,1.54-3.15,1.54-5.09h-1c0,1.76-.46,3.25-1.35,4.51l.82,.58Zm39.24-47.59h.5v-.5h-.5v.5Zm0,56.88v.5h.5v-.5h-.5Zm-7.42,0h-.5v.5h.5v-.5Zm0-56.88v-.5h-.5v.5h.5Zm25.7,0h.5v-.5h-.5v.5Zm0,6.17v.5h.5v-.5h-.5Zm-43.95,0h-.5v.5h.5v-.5Zm0-6.17v-.5h-.5v.5h.5Zm25.16,0v56.88h1V17.12h-1Zm.5,56.38h-7.42v1h7.42v-1Zm-6.92,.5V17.12h-1v56.88h1Zm-.5-56.38h7.42v-1h-7.42v1Zm25.2-.5v6.17h1v-6.17h-1Zm.5,5.67h-43.95v1h43.95v-1Zm-43.45,.5v-6.17h-1v6.17h1Zm-.5-5.67h43.95v-1h-43.95v1Z"/></svg>