<svg width="11" height="11" viewBox="0 0 11 11" xmlns="http://www.w3.org/2000/svg">
<path d="M5.4909 0C2.44763 0 0.000538148 2.28658 0.000538148 5.10748C0.000538148 6.32591 0.460041 7.43974 1.22667 8.31685C0.957638 9.5537 0.0586486 10.6562 0.0478874 10.6685C-0.000537974 10.7238 -0.0139895 10.8093 0.0156038 10.883C0.0424853 10.9566 0.102145 11 0.172093 11C1.59795 11 2.64932 10.2201 3.19814 9.73811C3.90041 10.0389 4.68361 10.2142 5.50964 10.2142C8.55291 10.2142 11 7.92741 11 5.12885C11 2.33029 8.53416 0 5.4909 0ZM2.71666 5.89325C2.33464 5.89325 2.02795 5.54334 2.02795 5.12958C2.02795 4.71583 2.33464 4.34382 2.71666 4.34382C3.09868 4.34382 3.40538 4.69373 3.40538 5.12958C3.40538 5.56544 3.11698 5.89325 2.71666 5.89325ZM5.4909 5.89325C5.10887 5.89325 4.82155 5.54334 4.82155 5.12958C4.82155 4.71583 5.12824 4.34382 5.4909 4.34382C5.85355 4.34382 6.16024 4.69373 6.16024 5.12958C6.16024 5.56544 5.87399 5.89325 5.4909 5.89325ZM8.22639 5.89325C7.84437 5.89325 7.53767 5.54334 7.53767 5.12958C7.53767 4.71583 7.84437 4.34382 8.22639 4.34382C8.60841 4.34382 8.91511 4.69373 8.91511 5.12958C8.91511 5.56544 8.62671 5.89325 8.22639 5.89325Z"/>
</svg>
