<svg width="12" height="13" viewBox="0 0 12 13" xmlns="http://www.w3.org/2000/svg">
<path d="M11.9656 4.14272C12.0477 4.35657 11.978 4.59777 11.8089 4.75443L10.7322 5.73416C10.7596 5.94055 10.7745 6.15191 10.7745 6.36576C10.7745 6.57961 10.7596 6.79097 10.7322 6.99736L11.8089 7.97709C11.978 8.13375 12.0477 8.37495 11.9656 8.5888C11.8562 8.88471 11.7244 9.17067 11.5752 9.44172L11.4583 9.64313C11.2942 9.91666 11.1102 10.1753 10.9088 10.4214C10.7596 10.598 10.5184 10.6602 10.2996 10.5905L8.9145 10.1479C8.5813 10.404 8.1909 10.6179 7.82039 10.782L7.50956 12.2019C7.45983 12.4257 7.28576 12.5848 7.05699 12.6445C6.71384 12.7017 6.36074 12.7315 5.9778 12.7315C5.63962 12.7315 5.28652 12.7017 4.94336 12.6445C4.71459 12.5848 4.54053 12.4257 4.4908 12.2019L4.17997 10.782C3.78708 10.6179 3.41906 10.404 3.08585 10.1479L1.7018 10.5905C1.48198 10.6602 1.23953 10.598 1.09233 10.4214C0.890661 10.1753 0.706651 9.91666 0.542534 9.64313L0.42616 9.44172C0.275222 9.17067 0.143928 8.88471 0.0337703 8.5888C-0.0467963 8.37495 0.0210886 8.13375 0.191671 7.97709L1.26739 6.99736C1.24003 6.79097 1.22586 6.57961 1.22586 6.36576C1.22586 6.15191 1.24003 5.94055 1.26739 5.73416L0.191671 4.75443C0.0210886 4.59777 -0.0467963 4.35905 0.0337703 4.14272C0.143928 3.84681 0.27547 3.56085 0.42616 3.28981L0.542285 3.08839C0.706651 2.81486 0.890661 2.55625 1.09233 2.31132C1.23953 2.13352 1.48198 2.07186 1.7018 2.14198L3.08585 2.5836C3.41906 2.32649 3.78708 2.11264 4.17997 1.95026L4.4908 0.530397C4.54053 0.304612 4.71459 0.125326 4.94336 0.0872805C5.28652 0.0298644 5.63962 0 6.00018 0C6.36074 0 6.71384 0.0298644 7.05699 0.0872805C7.28576 0.125326 7.45983 0.304612 7.50956 0.530397L7.82039 1.95026C8.1909 2.11264 8.5813 2.32649 8.9145 2.5836L10.2996 2.14198C10.5184 2.07186 10.7596 2.13352 10.9088 2.31132C11.1102 2.55625 11.2942 2.81486 11.4583 3.08839L11.5752 3.28981C11.7244 3.56085 11.8562 3.84681 11.9656 4.14272ZM6.00018 8.35506C7.09927 8.35506 7.98948 7.46485 7.98948 6.34338C7.98948 5.26667 7.09927 4.35408 6.00018 4.35408C4.90109 4.35408 4.01088 5.26667 4.01088 6.34338C4.01088 7.46485 4.90109 8.35506 6.00018 8.35506Z" />
</svg>
