<svg width="15" height="15" viewBox="0 0 15 15" xmlns="http://www.w3.org/2000/svg">
<path d="M0.478772 0.621842C0.768718 0.49962 1.10205 0.566481 1.32446 0.796316L2.65312 2.17031C3.98082 0.820386 5.79246 0 7.73179 0C11.7543 0.030121 15 3.38622 15 7.51489C15 11.6436 11.7543 15 7.76185 15C6.0708 15 4.42241 14.3872 3.12284 13.2693C2.79343 12.9851 2.74914 12.4797 3.02386 12.139C3.29964 11.7974 3.78744 11.7526 4.11685 12.0366C5.13685 12.9139 6.42996 13.3987 7.75862 13.3987C10.8954 13.3987 13.4483 10.7587 13.4483 7.51489C13.4483 4.27112 10.8944 1.63111 7.75862 1.63111C6.23664 1.63111 4.81907 2.27599 3.77586 3.33239L5.46142 5.07546C5.68367 5.3053 5.74933 5.65014 5.63014 5.95001C5.51185 6.25122 5.22737 6.44512 4.91379 6.44512H0.775862C0.347522 6.44512 0 6.08741 0 5.64278V1.36367C0 1.03872 0.188793 0.746204 0.478772 0.621842Z"/>
</svg>
