<svg width="30" height="30" viewBox="0 0 30 30" xmlns="http://www.w3.org/2000/svg">
<rect x="0.5" y="0.5" width="29" height="29" rx="4.5" stroke="#D2D2D2"/>
<path d="M26.7666 12.6498H25.8V12.6H15V17.4H21.7818C20.7924 20.1942 18.1338 22.2 15 22.2C11.0238 22.2 7.8 18.9762 7.8 15C7.8 11.0238 11.0238 7.8 15 7.8C16.8354 7.8 18.5052 8.4924 19.7766 9.6234L23.1708 6.2292C21.0276 4.2318 18.1608 3 15 3C8.373 3 3 8.373 3 15C3 21.627 8.373 27 15 27C21.627 27 27 21.627 27 15C27 14.1954 26.9172 13.41 26.7666 12.6498Z" fill="#FFC107"/>
<path d="M4.38361 9.4146L8.32621 12.306C9.393 9.6648 11.9766 7.8 15 7.8C16.8354 7.8 18.5052 8.4924 19.7766 9.6234L23.1708 6.2292C21.0276 4.2318 18.1608 3 15 3C10.3908 3 6.39361 5.6022 4.38361 9.4146Z" fill="#FF3D00"/>
<path d="M15 27C18.0996 27 20.916 25.8138 23.0454 23.8848L19.3314 20.742C18.1266 21.6546 16.629 22.2 15 22.2C11.8788 22.2 9.22859 20.2098 8.23019 17.4324L4.31699 20.4474C6.30299 24.3336 10.3362 27 15 27Z" fill="#4CAF50"/>
<path d="M26.7666 12.6498H25.8V12.6H15V17.4H21.7818C21.3066 18.7422 20.4432 19.8996 19.3296 20.7426C19.3302 20.742 19.3308 20.742 19.3314 20.7414L23.0454 23.8842C22.7826 24.123 27 21 27 15C27 14.1954 26.9172 13.41 26.7666 12.6498Z" fill="#1976D2"/>
</svg>
