<svg width="13" height="13" viewBox="0 0 13 13" fill="white" xmlns="http://www.w3.org/2000/svg">
<path d="M10.1155 12.9931L2.89711 13C1.30906 13.0014 0.00866332 11.7036 0.00685871 10.1155L1.20324e-06 2.89711C-0.00144248 1.30906 1.29643 0.00866332 2.88448 0.00685871L10.1029 1.20324e-06C11.6909 -0.00144248 12.9913 1.29643 12.9931 2.88448L13 10.1029C13.0018 11.6913 11.7036 12.9917 10.1155 12.9931Z" fill="url(#paint0_radial_1663_26)"/>
<path d="M10.1155 12.9931L2.89711 13C1.30906 13.0014 0.00866332 11.7036 0.00685871 10.1155L1.20324e-06 2.89711C-0.00144248 1.30906 1.29643 0.00866332 2.88448 0.00685871L10.1029 1.20324e-06C11.6909 -0.00144248 12.9913 1.29643 12.9931 2.88448L13 10.1029C13.0018 11.6913 11.7036 12.9917 10.1155 12.9931Z" fill="url(#paint1_radial_1663_26)"/>
<path d="M6.50008 9.02652C5.10728 9.02652 3.97363 7.89323 3.97363 6.50008C3.97363 5.10692 5.10728 3.97363 6.50008 3.97363C7.89287 3.97363 9.02652 5.10692 9.02652 6.50008C9.02652 7.89323 7.89287 9.02652 6.50008 9.02652ZM6.50008 4.69547C5.50502 4.69547 4.69547 5.50502 4.69547 6.50008C4.69547 7.49513 5.50502 8.30468 6.50008 8.30468C7.49513 8.30468 8.30468 7.49513 8.30468 6.50008C8.30468 5.50502 7.49513 4.69547 6.50008 4.69547Z" />
<path d="M9.20691 4.33447C9.5059 4.33447 9.74829 4.09209 9.74829 3.79309C9.74829 3.49409 9.5059 3.25171 9.20691 3.25171C8.90791 3.25171 8.66553 3.49409 8.66553 3.79309C8.66553 4.09209 8.90791 4.33447 9.20691 4.33447Z" />
<path d="M8.6656 11.192H4.33455C2.94176 11.192 1.80811 10.0587 1.80811 8.6656V4.33455C1.80811 2.9414 2.94176 1.80811 4.33455 1.80811H8.6656C10.0584 1.80811 11.192 2.9414 11.192 4.33455V8.6656C11.192 10.0587 10.0584 11.192 8.6656 11.192ZM4.33455 2.52995C3.33949 2.52995 2.52995 3.33949 2.52995 4.33455V8.6656C2.52995 9.66065 3.33949 10.4702 4.33455 10.4702H8.6656C9.66065 10.4702 10.4702 9.66065 10.4702 8.6656V4.33455C10.4702 3.33949 9.66065 2.52995 8.6656 2.52995H4.33455Z" />
<defs>
<radialGradient id="paint0_radial_1663_26" cx="0" cy="0" r="1" gradientUnits="userSpaceOnUse" gradientTransform="translate(4.83273 13.0094) scale(16.205 16.205)">
<stop stop-color="#FFDD55"/>
<stop offset="0.328" stop-color="#FF543F"/>
<stop offset="0.348" stop-color="#FC5245"/>
<stop offset="0.504" stop-color="#E64771"/>
<stop offset="0.643" stop-color="#D53E91"/>
<stop offset="0.761" stop-color="#CC39A4"/>
<stop offset="0.841" stop-color="#C837AB"/>
</radialGradient>
<radialGradient id="paint1_radial_1663_26" cx="0" cy="0" r="1" gradientUnits="userSpaceOnUse" gradientTransform="translate(2.0919 -0.162304) scale(10.7601 7.16947)">
<stop stop-color="#4168C9"/>
<stop offset="0.999" stop-color="#4168C9" stop-opacity="0"/>
</radialGradient>
</defs>
</svg>
