<svg width="52" height="30" viewBox="0 0 52 30" xmlns="http://www.w3.org/2000/svg">
<path d="M6.36527 0.333984V28.8137H0V0.333984H6.36527ZM23.3523 0.333984L12.2229 14.5738L5.74046 21.6155L4.58846 15.6887L8.86452 9.54686L15.5422 0.333984H23.3523ZM15.9717 28.8137L8.12255 15.8061L12.9649 12.031L23.5086 28.8137H15.9717Z" />
<path d="M30.0455 8.2637V3.72572C30.0455 3.40624 29.9967 3.13239 29.899 2.9042C29.8015 2.67599 29.6485 2.49669 29.4403 2.36629C29.2319 2.23589 28.9618 2.17068 28.6299 2.17068C28.3501 2.17068 28.106 2.21958 27.8977 2.31739C27.696 2.41518 27.5397 2.55537 27.4291 2.73793C27.325 2.92049 27.2729 3.14543 27.2729 3.41276H24.2269C24.2269 2.93679 24.3343 2.49343 24.5491 2.08266C24.7639 1.6719 25.0698 1.31003 25.4669 0.99707C25.8703 0.684105 26.352 0.442863 26.9117 0.273341C27.4715 0.0972988 28.0995 0.00927734 28.7959 0.00927734C29.6225 0.00927734 30.3579 0.149459 31.0023 0.429823C31.6531 0.703666 32.1673 1.11769 32.5447 1.6719C32.9222 2.21958 33.111 2.91072 33.111 3.74528V8.17568C33.111 8.81464 33.1468 9.31669 33.2184 9.68181C33.2965 10.0405 33.4072 10.3534 33.5503 10.6207V10.787H30.4751C30.3319 10.4805 30.2245 10.1024 30.153 9.65248C30.0813 9.19607 30.0455 8.73314 30.0455 8.2637ZM30.4263 4.33209L30.4458 6.01427H28.9325C28.5941 6.01427 28.3012 6.05665 28.0539 6.14141C27.8132 6.22617 27.6178 6.34353 27.4682 6.4935C27.3185 6.63694 27.2078 6.80646 27.1363 7.00206C27.0712 7.19115 27.0386 7.39979 27.0386 7.62799C27.0386 7.84315 27.0907 8.03875 27.1948 8.2148C27.2989 8.38432 27.4422 8.51798 27.6244 8.61578C27.8066 8.71358 28.0181 8.76249 28.2589 8.76249C28.656 8.76249 28.9944 8.68424 29.2742 8.52776C29.5606 8.37128 29.782 8.1822 29.9381 7.96051C30.0944 7.73231 30.1725 7.52041 30.1725 7.32481L30.9046 8.59622C30.7875 8.85703 30.6443 9.12761 30.4751 9.40797C30.3058 9.68181 30.0911 9.93931 29.8308 10.1806C29.5704 10.4153 29.2547 10.6077 28.8837 10.7576C28.5192 10.9075 28.08 10.9826 27.5658 10.9826C26.9019 10.9826 26.2999 10.8489 25.7597 10.5816C25.2195 10.3078 24.7867 9.9328 24.4613 9.45688C24.1424 8.9809 23.9829 8.43322 23.9829 7.81381C23.9829 7.2596 24.0838 6.76734 24.2855 6.33701C24.4873 5.90669 24.79 5.54156 25.1934 5.24164C25.6035 4.94172 26.1177 4.71677 26.736 4.56681C27.3543 4.41033 28.0767 4.33209 28.9033 4.33209H30.4263ZM34.673 5.60351V5.39812C34.673 4.62223 34.7837 3.90828 35.005 3.25628C35.2262 2.59775 35.5516 2.02725 35.9812 1.54475C36.4108 1.06227 36.938 0.687366 37.5628 0.420043C38.1876 0.146199 38.9035 0.00927734 39.7106 0.00927734C40.5306 0.00927734 41.2531 0.146199 41.8779 0.420043C42.5092 0.687366 43.0397 1.06227 43.4693 1.54475C43.8988 2.02725 44.2242 2.59775 44.4455 3.25628C44.6668 3.90828 44.7775 4.62223 44.7775 5.39812V5.60351C44.7775 6.37288 44.6668 7.08682 44.4455 7.74535C44.2242 8.39736 43.8988 8.96786 43.4693 9.45688C43.0397 9.93931 42.5124 10.3143 41.8876 10.5816C41.2628 10.8489 40.5436 10.9826 39.7301 10.9826C38.923 10.9826 38.2038 10.8489 37.5725 10.5816C36.9412 10.3143 36.4108 9.93931 35.9812 9.45688C35.5516 8.96786 35.2262 8.39736 35.005 7.74535C34.7837 7.08682 34.673 6.37288 34.673 5.60351ZM37.7288 5.39812V5.60351C37.7288 6.02079 37.7613 6.41199 37.8264 6.77712C37.8979 7.14225 38.0119 7.46173 38.168 7.73557C38.3243 8.00941 38.5293 8.22458 38.7832 8.38106C39.0435 8.53102 39.3591 8.60601 39.7301 8.60601C40.1011 8.60601 40.4135 8.53102 40.6673 8.38106C40.9211 8.22458 41.1262 8.00941 41.2824 7.73557C41.4386 7.46173 41.5492 7.14225 41.6143 6.77712C41.6859 6.41199 41.7217 6.02079 41.7217 5.60351V5.39812C41.7217 4.98735 41.6859 4.60267 41.6143 4.24407C41.5492 3.87894 41.4386 3.5562 41.2824 3.27584C41.1262 2.99547 40.9179 2.77705 40.6576 2.62057C40.4038 2.46408 40.0881 2.38585 39.7106 2.38585C39.3461 2.38585 39.037 2.46408 38.7832 2.62057C38.5293 2.77705 38.3243 2.99547 38.168 3.27584C38.0119 3.5562 37.8979 3.87894 37.8264 4.24407C37.7613 4.60267 37.7288 4.98735 37.7288 5.39812Z" />
<path d="M28.589 26.349V28.8135H21.4134V26.349H28.589ZM22.4971 14.5736V28.8135H19.3145V14.5736H22.4971ZM33.2067 18.2315V28.8135H30.151V18.2315H33.2067ZM29.9656 15.493C29.9656 15.0496 30.1217 14.6878 30.4341 14.4074C30.7465 14.1206 31.1566 13.9771 31.6642 13.9771C32.1719 13.9771 32.5819 14.1206 32.8943 14.4074C33.2133 14.6878 33.3727 15.0496 33.3727 15.493C33.3727 15.9298 33.2133 16.2917 32.8943 16.5786C32.5819 16.859 32.1719 16.9991 31.6642 16.9991C31.1566 16.9991 30.7465 16.859 30.4341 16.5786C30.1217 16.2917 29.9656 15.9298 29.9656 15.493ZM41.0266 25.8697C41.0266 25.6741 40.9648 25.5013 40.8412 25.3514C40.724 25.2014 40.5092 25.0645 40.1968 24.9406C39.8909 24.8167 39.4581 24.6928 38.8984 24.5689C38.3712 24.4581 37.8798 24.3147 37.4242 24.1386C36.9686 23.956 36.5716 23.7376 36.2332 23.4833C35.8947 23.2226 35.6311 22.9161 35.4424 22.5641C35.2537 22.2054 35.1593 21.7979 35.1593 21.3416C35.1593 20.8982 35.2537 20.4776 35.4424 20.0799C35.6376 19.6822 35.9175 19.3301 36.282 19.0236C36.6529 18.7172 37.102 18.4759 37.6292 18.3C38.1629 18.1239 38.7682 18.0359 39.4451 18.0359C40.3758 18.0359 41.1796 18.1826 41.8565 18.4759C42.5334 18.7628 43.054 19.167 43.4185 19.6887C43.783 20.2038 43.9652 20.7939 43.9652 21.4588H40.9193C40.9193 21.185 40.8672 20.9471 40.763 20.745C40.6589 20.5428 40.4995 20.3863 40.2846 20.2755C40.0699 20.1581 39.7868 20.0994 39.4353 20.0994C39.162 20.0994 38.9212 20.1484 38.7129 20.2461C38.5111 20.3375 38.3516 20.4646 38.2345 20.6276C38.1239 20.7905 38.0685 20.9796 38.0685 21.1948C38.0685 21.3448 38.1011 21.4817 38.1662 21.6056C38.2378 21.7229 38.3451 21.8338 38.4883 21.9381C38.638 22.0359 38.83 22.1239 39.0643 22.2021C39.3051 22.2805 39.5981 22.3554 39.9429 22.4271C40.6784 22.5641 41.3488 22.7564 41.954 23.0041C42.5659 23.2519 43.054 23.5942 43.4185 24.0311C43.7895 24.4679 43.9749 25.045 43.9749 25.7621C43.9749 26.2316 43.8676 26.662 43.6528 27.0531C43.4445 27.4443 43.1419 27.7866 42.7449 28.0801C42.3478 28.3734 41.8728 28.6016 41.3195 28.7647C40.7663 28.9276 40.1415 29.0091 39.4451 29.0091C38.4493 29.0091 37.6065 28.8299 36.9166 28.4712C36.2267 28.1126 35.7059 27.6627 35.3545 27.1215C35.0095 26.5739 34.8371 26.0132 34.8371 25.4394H37.6975C37.7105 25.7915 37.7984 26.0784 37.9611 26.3C38.1304 26.5217 38.3484 26.6847 38.6152 26.789C38.8821 26.8869 39.1815 26.9358 39.5134 26.9358C39.8454 26.9358 40.122 26.8901 40.3432 26.7989C40.5646 26.7075 40.7337 26.5836 40.8509 26.4272C40.968 26.2642 41.0266 26.0784 41.0266 25.8697Z" />
<path d="M51.8634 18.2314V20.3733H45.5957V18.2314H51.8634ZM47.0309 15.6104H50.0866V25.4981C50.0866 25.7914 50.1224 26.0164 50.1939 26.1729C50.2655 26.3293 50.3827 26.4402 50.5454 26.5054C50.7082 26.5641 50.9164 26.5934 51.1702 26.5934C51.3525 26.5934 51.5086 26.5869 51.6388 26.5739C51.769 26.5609 51.8894 26.5446 52.0001 26.5249V28.7353C51.7398 28.82 51.4631 28.8852 51.1702 28.9309C50.8773 28.9831 50.5584 29.0091 50.2135 29.0091C49.5561 29.0091 48.9866 28.9015 48.505 28.6863C48.0299 28.4712 47.6654 28.1322 47.4116 27.6692C47.1577 27.1998 47.0309 26.5901 47.0309 25.8403V15.6104Z" />
</svg>
