<svg width="17" height="15" viewBox="0 0 17 15" xmlns="http://www.w3.org/2000/svg">
<path d="M0.796875 0C1.23682 0 1.59375 0.359933 1.59375 0.803571V12.5893C1.59375 13.0346 1.95068 13.3929 2.39062 13.3929H16.2031C16.6447 13.3929 17 13.7511 17 14.1964C17 14.6417 16.6447 15 16.2031 15H2.39062C1.07047 15 0 13.9219 0 12.5893V0.803571C0 0.359933 0.356934 0 0.796875 0ZM5.57812 6.42857C6.01973 6.42857 6.375 6.78683 6.375 7.23214V9.91071C6.375 10.356 6.01973 10.7143 5.57812 10.7143C5.13652 10.7143 4.78125 10.356 4.78125 9.91071V7.23214C4.78125 6.78683 5.13652 6.42857 5.57812 6.42857ZM9.5625 9.91071C9.5625 10.356 9.20723 10.7143 8.76562 10.7143C8.32402 10.7143 7.96875 10.356 7.96875 9.91071V4.01786C7.96875 3.57254 8.32402 3.21429 8.76562 3.21429C9.20723 3.21429 9.5625 3.57254 9.5625 4.01786V9.91071ZM11.9531 5.35714C12.3947 5.35714 12.75 5.7154 12.75 6.16071V9.91071C12.75 10.356 12.3947 10.7143 11.9531 10.7143C11.5115 10.7143 11.1562 10.356 11.1562 9.91071V6.16071C11.1562 5.7154 11.5115 5.35714 11.9531 5.35714ZM15.9375 9.91071C15.9375 10.356 15.5822 10.7143 15.1406 10.7143C14.699 10.7143 14.3438 10.356 14.3438 9.91071V1.875C14.3438 1.43136 14.699 1.07143 15.1406 1.07143C15.5822 1.07143 15.9375 1.43136 15.9375 1.875V9.91071Z"/>
</svg>
