<svg width="17" height="15" viewBox="0 0 17 15" xmlns="http://www.w3.org/2000/svg">
<path d="M4.36871 3.51611C5.94815 1.71667 8.50841 1.71667 10.0879 3.51611C11.5914 5.22819 11.6729 7.97711 10.2705 9.8012L10.1216 9.99641C9.87426 10.3164 9.44989 10.3484 9.16885 10.07C8.88782 9.7916 8.85971 9.30517 9.10422 8.98516L9.25598 8.78995C10.189 7.57389 10.1356 5.74341 9.13232 4.60096C8.08123 3.3753 6.37533 3.3753 5.29895 4.60096L2.13811 8.22673C1.0859 9.42678 1.0859 11.3693 2.13811 12.5661C3.14057 13.6798 4.75093 13.7694 5.81606 12.7069L5.99031 12.5341C6.26853 12.2557 6.69571 12.2877 6.94022 12.6077C7.18753 12.9245 7.15662 13.411 6.87839 13.6894L6.70414 13.8622C5.10222 15.4559 2.6881 15.3663 1.18426 13.651C-0.394754 11.8557 -0.394754 8.91156 1.18426 7.14188L4.36871 3.51611ZM12.6313 11.4845C11.0518 13.283 8.49155 13.283 6.91211 11.4845C5.38326 9.74359 5.32705 7.02347 6.72663 5.19939L6.85872 5.02658C7.10322 4.70656 7.5304 4.67456 7.81144 4.95297C8.09248 5.23139 8.12058 5.71781 7.87608 6.03782L7.74399 6.21063C6.80813 7.42669 6.86434 9.25717 7.86483 10.3996C8.91873 11.5965 10.6246 11.5965 11.6785 10.3996L14.8627 6.77386C15.9138 5.5738 15.9138 3.63131 14.8627 2.43446C13.8594 1.29265 12.249 1.23152 11.1839 2.29525L11.0097 2.46646C10.7314 2.74487 10.3043 2.71287 10.0597 2.39414C9.81243 2.07508 9.84335 1.58962 10.1216 1.31057L10.2958 1.13904C11.8977 -0.456938 14.3119 -0.365349 15.8154 1.34833C17.3949 3.14489 17.3949 6.06023 15.8154 7.85871L12.6313 11.4845Z"/>
</svg>
