<svg width="11" height="11" viewBox="0 0 11 11" fill="none" xmlns="http://www.w3.org/2000/svg">
<path d="M6.10141 4.49407C6.3431 4.71018 6.49014 5.09082 6.49014 5.50094C6.49014 5.91105 6.3431 6.29169 6.10141 6.4857L1.23433 10.8078C0.983845 11.051 0.670328 11.0608 0.414443 10.852C0.158503 10.6433 1.72952e-05 10.2504 1.72952e-05 9.82308L1.72952e-05 1.17879C1.72952e-05 0.7525 0.158503 0.3593 0.414443 0.1506C0.670328 -0.0578996 0.983845 -0.0492998 1.23433 0.1729L6.10141 4.49407Z" />
<path d="M10.6113 4.49407C10.853 4.71018 11 5.09082 11 5.50094C11 5.91105 10.853 6.29169 10.6113 6.4857L5.74418 10.8078C5.4937 11.051 5.18018 11.0608 4.9243 10.852C4.66836 10.6433 4.50987 10.2504 4.50987 9.82308L4.50987 1.17879C4.50987 0.7525 4.66836 0.3593 4.9243 0.1506C5.18018 -0.0578996 5.4937 -0.0492998 5.74418 0.1729L10.6113 4.49407Z" />
</svg>
