<svg width="13" height="15" viewBox="0 0 13 15" xmlns="http://www.w3.org/2000/svg">
<path d="M6.45647 7.23214V8.83929C6.45647 9.2846 6.67438 9.64286 6.94071 9.64286C7.20704 9.64286 7.42494 9.28292 7.42494 8.83929V8.03571H9.20047V13.3929H8.55482C8.28749 13.3929 8.07059 13.7528 8.07059 14.1964C8.07059 14.6401 8.2885 15 8.55482 15H10.8146C11.0819 15 11.2988 14.6401 11.2988 14.1964C11.2988 13.7528 11.0819 13.3929 10.8146 13.3929H10.1689V8.03571H11.9445V8.83929C11.9445 9.28292 12.1614 9.64286 12.4287 9.64286C12.696 9.64286 12.9129 9.2846 12.9129 8.83929V7.23214C12.9129 6.79018 12.6971 6.42857 12.4287 6.42857H6.94071C6.67438 6.42857 6.45647 6.79018 6.45647 7.23214ZM0 0.803571V3.48214C0 3.92746 0.216897 4.28571 0.484235 4.28571C0.751574 4.28571 0.968471 3.92746 0.968471 3.48214V1.60714H3.38965V13.3929H2.42118C2.15485 13.3929 1.93694 13.7545 1.93694 14.1964C1.93694 14.6384 2.15485 15 2.42118 15H5.32659C5.59494 15 5.81082 14.6417 5.81082 14.1964C5.81082 13.7511 5.59494 13.3929 5.32659 13.3929H4.35812V1.60714H6.7793V3.48214C6.7793 3.92746 6.9972 4.28571 7.26353 4.28571C7.52986 4.28571 7.74777 3.92746 7.74777 3.48214V0.803571C7.74777 0.359933 7.53188 0 7.26353 0H0.484235C0.216897 0 0 0.359933 0 0.803571Z"/>
</svg>
