<svg width="15" height="15" viewBox="0 0 15 15" xmlns="http://www.w3.org/2000/svg">
<path d="M14.1964 0C14.6417 0 15 0.373264 15 0.833333C15 1.2934 14.6417 1.66667 14.1964 1.66667H0.803571C0.359933 1.66667 0 1.2934 0 0.833333C0 0.373264 0.359933 0 0.803571 0H14.1964ZM14.1964 4.44444C14.6417 4.44444 15 4.81597 15 5.27778C15 5.73958 14.6417 6.11111 14.1964 6.11111H0.803571C0.359933 6.11111 0 5.73958 0 5.27778C0 4.81597 0.359933 4.44444 0.803571 4.44444H14.1964ZM0 9.72222C0 9.26042 0.359933 8.88889 0.803571 8.88889H14.1964C14.6417 8.88889 15 9.26042 15 9.72222C15 10.184 14.6417 10.5556 14.1964 10.5556H0.803571C0.359933 10.5556 0 10.184 0 9.72222ZM14.1964 13.3333C14.6417 13.3333 15 13.7049 15 14.1667C15 14.6285 14.6417 15 14.1964 15H0.803571C0.359933 15 0 14.6285 0 14.1667C0 13.7049 0.359933 13.3333 0.803571 13.3333H14.1964Z"/>
</svg>
