<svg width="11" height="13" viewBox="0 0 11 13" xmlns="http://www.w3.org/2000/svg">
<path d="M6.08929 9.75C6.08929 10.0877 5.82656 10.3594 5.5 10.3594C5.17344 10.3594 4.91071 10.0877 4.91071 9.75V8.125C4.91071 7.7873 5.17344 7.51562 5.5 7.51562C5.82656 7.51562 6.08929 7.7873 6.08929 8.125V9.75ZM5.5 0C7.23594 0 8.64286 1.45514 8.64286 3.25V4.875H9.42857C10.2953 4.875 11 5.60371 11 6.5V11.375C11 12.2713 10.2953 13 9.42857 13H1.57143C0.70346 13 0 12.2713 0 11.375V6.5C0 5.60371 0.70346 4.875 1.57143 4.875H2.35714V3.25C2.35714 1.45514 3.76406 0 5.5 0ZM5.5 1.21875C4.41473 1.21875 3.53571 2.12824 3.53571 3.25V4.875H7.46429V3.25C7.46429 2.12824 6.58527 1.21875 5.5 1.21875ZM1.57143 6.09375C1.35438 6.09375 1.17857 6.27656 1.17857 6.5V11.375C1.17857 11.5984 1.35438 11.7812 1.57143 11.7812H9.42857C9.64464 11.7812 9.82143 11.5984 9.82143 11.375V6.5C9.82143 6.27656 9.64464 6.09375 9.42857 6.09375H1.57143Z"/>
</svg>
