<svg width="9" height="9" viewBox="0 0 9 9" xmlns="http://www.w3.org/2000/svg">
<path d="M0 0.75C0 0.335859 0.287879 0 0.642857 0H8.35714C8.71272 0 9 0.335859 9 0.75C9 1.16484 8.71272 1.5 8.35714 1.5H0.642857C0.287879 1.5 0 1.16484 0 0.75ZM0 4.5C0 4.08516 0.287879 3.75 0.642857 3.75H8.35714C8.71272 3.75 9 4.08516 9 4.5C9 4.91484 8.71272 5.25 8.35714 5.25H0.642857C0.287879 5.25 0 4.91484 0 4.5ZM8.35714 9H0.642857C0.287879 9 0 8.66484 0 8.25C0 7.83516 0.287879 7.5 0.642857 7.5H8.35714C8.71272 7.5 9 7.83516 9 8.25C9 8.66484 8.71272 9 8.35714 9Z"/>
</svg>
