<svg width="30" height="30" viewBox="0 0 30 30" stroke="#58E28B" xmlns="http://www.w3.org/2000/svg">
<circle cx="15" cy="15" r="14" fill="transparent" stroke-width="2" />
<path d="M11.9375 16C11.9375 14.0656 13.3074 12.5 15 12.5C16.6926 12.5 18.0625 14.0656 18.0625 16C18.0625 17.9344 16.6926 19.5 15 19.5C13.3074 19.5 11.9375 17.9344 11.9375 16ZM15 14C14.0348 14 13.25 14.8969 13.25 16C13.25 17.1031 14.0348 18 15 18C15.9652 18 16.75 17.1031 16.75 16C16.75 14.8969 15.9652 14 15 14ZM17.923 9.02562L18.2074 10H20.25C21.2152 10 22 10.8969 22 12V20C22 21.1031 21.2152 22 20.25 22H9.75C8.7834 22 8 21.1031 8 20V12C8 10.8969 8.7834 10 9.75 10H11.7926L12.077 9.02562C12.2547 8.41312 12.7551 8 13.3211 8H16.6789C17.2449 8 17.7453 8.41312 17.923 9.02562ZM9.75 11.5C9.50828 11.5 9.3125 11.725 9.3125 12V20C9.3125 20.275 9.50828 20.5 9.75 20.5H20.25C20.4906 20.5 20.6875 20.275 20.6875 20V12C20.6875 11.725 20.4906 11.5 20.25 11.5H17.2613L16.6789 9.5H13.3211L12.7387 11.5H9.75Z" />
</svg>
