<svg width="20" height="21" viewBox="0 0 20 21" xmlns="http://www.w3.org/2000/svg">
<path d="M1.24883 10.3329H10.0027C10.6914 10.3329 11.25 9.80397 11.25 9.10529C11.25 8.40661 10.6906 7.84134 10.0012 7.84134H1.24883C0.559375 7.80661 0 8.40661 0 9.06976C0 9.73292 0.559375 10.3329 1.24883 10.3329ZM1.24883 5.28029H10.0027C10.6914 5.28029 11.25 4.7474 11.25 4.05226C11.25 3.35555 10.6906 2.78871 10.0012 2.78871H1.24883C0.559375 2.78871 0 3.35437 0 4.05148C0 4.74858 0.559375 5.28029 1.24883 5.28029ZM5 12.8592H1.24883C0.559375 12.8592 0 13.4592 0 14.1224C0 14.7856 0.559375 15.3863 1.24883 15.3863H5C5.69141 15.3856 6.25 14.8566 6.25 14.1579C6.25 13.4592 5.69141 12.8592 5 12.8592ZM18.3984 0.315409L14.6238 1.44041C14.1055 1.60332 13.75 2.092 13.75 2.64463V14.4749C13.1445 14.2676 12.5148 14.1591 11.875 14.1591C9.45781 14.1591 7.5 15.5754 7.5 17.3174C7.5 19.0593 9.45703 20.4737 11.875 20.4737C14.293 20.4737 16.25 19.0574 16.25 17.3154V6.10924L19.1016 5.26529C19.6328 5.10661 20 4.61319 20 4.05108V1.52476C20 1.1249 19.8145 0.749501 19.4969 0.512659C19.1836 0.275936 18.7734 0.201922 18.3984 0.315409Z"/>
</svg>
