<svg width="15" height="15" viewBox="0 0 15 15" xmlns="http://www.w3.org/2000/svg">
<path d="M10.0016 9.99902C9.50411 10.7461 8.73576 11.2031 7.91011 11.2471C7.91532 11.3262 7.91792 11.4053 7.91792 11.4844C7.91792 13.4268 6.51926 15 4.79243 15H0.833465C0.373236 15 0 14.5811 0 14.0625C0 13.5439 0.373236 13.125 0.833465 13.125H0.99C1.46091 13.125 1.77476 12.5449 1.70313 12.0234C1.67943 11.8477 1.64349 11.666 1.64349 11.4844C1.64349 9.54199 3.06559 7.96874 4.76898 7.96874C4.86275 7.96874 4.93307 7.97167 5.0034 7.97753C5.04247 7.04882 5.44878 6.18456 6.11295 5.62499L12.3327 0.375275C12.9734 -0.184794 13.9241 -0.110732 14.5127 0.549005C15.0987 1.20848 15.1639 2.25321 14.6664 2.99999L10.0016 9.99902ZM7.21729 6.43065L9.28532 8.70409L13.6662 2.15623C13.7912 1.96961 13.7756 1.70828 13.6272 1.54364C13.4813 1.37869 13.2495 1.35994 13.0828 1.49998L7.21729 6.43065ZM5.18572 9.42187C5.05809 9.38964 4.92786 9.37499 4.79243 9.37499C3.7558 9.37499 2.91713 10.3184 2.91713 11.4844C2.91713 11.5957 2.92494 11.7041 2.93797 11.8096C3.02392 12.4365 2.88327 13.0723 2.58062 13.5674L2.56343 13.5937H4.79243C5.82905 13.5937 6.66772 12.6504 6.66772 11.4844C6.66772 11.332 6.6547 11.1855 6.62605 11.042L5.18572 9.42187Z"/>
</svg>
