<svg width="7" height="10" viewBox="0 0 7 10" xmlns="http://www.w3.org/2000/svg">
<path d="M6.82872 6.21875L3.91198 9.79018C3.79896 9.9308 3.64948 10 3.49999 10C3.35051 10 3.20139 9.93025 3.08764 9.79074L0.170901 6.21931C0.00399079 6.01493 -0.045849 5.70792 0.0444241 5.44074C0.134642 5.17411 0.347364 5 0.583255 5H2.3333V0.714286C2.3333 0.319866 2.59453 0 2.91665 0H4.08334C4.40546 0 4.66669 0.319866 4.66669 0.714286V5H6.41673C6.65262 5 6.86536 5.17404 6.9556 5.44085C7.04565 5.70759 6.99643 6.01563 6.82872 6.21875Z" />
</svg>