<svg width="13" height="15" viewBox="0 0 13 15" xmlns="http://www.w3.org/2000/svg">
<path d="M1.16071 1.40625H1.85714V7.03125C1.85714 9.61582 3.94004 11.7188 6.5 11.7188C9.05996 11.7188 11.1429 9.61582 11.1429 7.03125V1.40625H11.8393C12.2238 1.40625 12.5357 1.09131 12.5357 0.703125C12.5357 0.314941 12.2252 0 11.8393 0H9.05357C8.67054 0 8.35714 0.314941 8.35714 0.703125C8.35714 1.09131 8.66908 1.40625 9.05357 1.40625H9.75V7.03125C9.75 8.84033 8.29185 10.3125 6.5 10.3125C4.70815 10.3125 3.25 8.8418 3.25 7.03125V1.40625H3.94643C4.33237 1.40625 4.64286 1.09131 4.64286 0.703125C4.64286 0.314941 4.33237 0 3.94643 0H1.16071C0.776228 0 0.464286 0.314941 0.464286 0.703125C0.464286 1.09131 0.776228 1.40625 1.16071 1.40625ZM12.3036 13.5938H0.696429C0.311942 13.5938 0 13.9102 0 14.2969C0 14.6836 0.311942 15 0.696429 15H12.3036C12.6881 15 13 14.6851 13 14.2969C13 13.9087 12.6895 13.5938 12.3036 13.5938Z"/>
</svg>