<svg width="7" height="7" viewBox="0 0 7 7" xmlns="http://www.w3.org/2000/svg">
<path d="M3.5 0C1.5668 0 0 1.5668 0 3.5C0 5.4332 1.5668 7 3.5 7C5.4332 7 7 5.4332 7 3.5C7 1.5668 5.4332 0 3.5 0ZM3.17188 2.07812C3.17188 1.89766 3.31953 1.75 3.5 1.75C3.68047 1.75 3.82812 1.89697 3.82812 2.07812V3.82812C3.82812 4.00928 3.68115 4.15625 3.5 4.15625C3.31885 4.15625 3.17188 4.00996 3.17188 3.82812V2.07812ZM3.5 5.46875C3.26266 5.46875 3.07016 5.27625 3.07016 5.03891C3.07016 4.80156 3.26252 4.60906 3.5 4.60906C3.73748 4.60906 3.92984 4.80156 3.92984 5.03891C3.9293 5.27598 3.73789 5.46875 3.5 5.46875Z"/>
</svg>
