<svg width="11" height="15" viewBox="0 0 11 15" xmlns="http://www.w3.org/2000/svg">
<path d="M11 0.535714C11 0.831696 10.7937 1.07143 10.5417 1.07143H8.15633L3.78411 13.9286H5.95833C6.21168 13.9286 6.41667 14.1682 6.41667 14.4643C6.41667 14.7604 6.21042 15 5.95833 15H0.458333C0.20499 15 0 14.7589 0 14.4643C0 14.1696 0.20499 13.9286 0.458333 13.9286H2.84367L7.21503 1.07143H5.04167C4.78958 1.07143 4.58333 0.831696 4.58333 0.535714C4.58333 0.239732 4.78958 0 5.04167 0H10.5417C10.7937 0 11 0.239732 11 0.535714Z"/>
</svg>