<svg width="56" height="56" viewBox="0 0 56 56" xmlns="http://www.w3.org/2000/svg">
<circle cx="28" cy="28" r="28"/>
<path d="M42.9473 34.5098C42.9473 37.0984 40.4289 39.1973 37.375 39.1973C34.3211 39.1973 31.8027 37.0984 31.8027 34.5625C31.8027 31.9738 34.3211 29.9277 37.375 29.9277C38.0359 29.9277 38.6611 30.0402 39.2506 30.2147V21.6777L24.25 26.125L24.2499 38.3184C24.1973 40.9023 21.7305 43 18.5723 43C15.4141 43 13 40.9023 13 38.3125C13 35.7238 15.5184 33.6777 18.5723 33.6777C19.2332 33.6777 19.8584 33.7902 20.4473 33.9647V20.4121C20.4473 19.6521 21.0367 18.8518 21.7604 18.6238L40.4576 13.0873C40.6621 13.0388 40.9668 13 41.125 13C42.1598 13 42.9982 13.8402 43 14.8744L42.9473 34.5098Z" fill="white"/>
</svg>
