<svg width="11" height="11" viewBox="0 0 11 11" fill="none" xmlns="http://www.w3.org/2000/svg">
<path d="M4.89859 6.50593C4.6569 6.28982 4.50986 5.90918 4.50986 5.49906C4.50986 5.08895 4.6569 4.70831 4.89859 4.5143L9.76567 0.192156C10.0162 -0.0509652 10.3297 -0.060788 10.5856 0.147952C10.8415 0.356692 11 0.749614 11 1.17692V9.82121C11 10.2475 10.8415 10.6407 10.5856 10.8494C10.3297 11.0579 10.0162 11.0493 9.76567 10.8271L4.89859 6.50593Z" />
<path d="M0.388731 6.50593C0.147042 6.28982 0 5.90918 0 5.49906C0 5.08895 0.147042 4.70831 0.388731 4.5143L5.25582 0.192156C5.5063 -0.0509652 5.81982 -0.060788 6.0757 0.147952C6.33164 0.356692 6.49013 0.749614 6.49013 1.17692V9.82121C6.49013 10.2475 6.33164 10.6407 6.0757 10.8494C5.81982 11.0579 5.5063 11.0493 5.25582 10.8271L0.388731 6.50593Z" />
</svg>
