<svg width="17" height="15" viewBox="0 0 17 15" xmlns="http://www.w3.org/2000/svg">
<path d="M0 2.14286C0 0.959263 0.95127 0 2.125 0H14.875C16.0471 0 17 0.959263 17 2.14286V12.8571C17 14.0391 16.0471 15 14.875 15H2.125C0.95127 15 0 14.0391 0 12.8571V2.14286ZM11.9531 4.55357H15.4063V2.14286C15.4063 1.84688 15.1672 1.60714 14.875 1.60714H11.9531V4.55357ZM10.3594 1.60714H6.64063V4.55357H10.3594V1.60714ZM5.04688 1.60714H2.125C1.83148 1.60714 1.59375 1.84688 1.59375 2.14286V4.55357H5.04688V1.60714ZM1.59375 6.16071V8.83929H5.04688V6.16071H1.59375ZM1.59375 10.4464V12.8571C1.59375 13.1518 1.83148 13.3929 2.125 13.3929H5.04688V10.4464H1.59375ZM6.64063 13.3929H10.3594V10.4464H6.64063V13.3929ZM11.9531 13.3929H14.875C15.1672 13.3929 15.4063 13.1518 15.4063 12.8571V10.4464H11.9531V13.3929ZM15.4063 8.83929V6.16071H11.9531V8.83929H15.4063ZM10.3594 8.83929V6.16071H6.64063V8.83929H10.3594Z"/>
</svg>
