<svg width="20" height="20" viewBox="0 0 20 20" xmlns="http://www.w3.org/2000/svg">
    <path d="M18.0013 1.72308C16.4004 0.34067 13.8051 0.34067 12.2041 1.72308L2.65621 9.96006C0.175258 12.1004 0.175258 15.566 2.65621 17.7064C5.13915 19.8467 9.1564 19.8467 11.6374 17.7064L19.1946 11.1868C19.3537 11.0538 19.6023 11.0538 19.7614 11.1868C19.9155 11.324 19.9155 11.5385 19.7614 11.6757L12.2041 18.1953C9.40997 20.6016 4.88558 20.6016 2.0934 18.1953C-0.697799 15.7848 -0.697799 11.8816 2.0934 9.47109L11.6374 1.23754C13.5515 -0.412514 16.6539 -0.412514 18.5681 1.23754C20.4773 2.8876 20.4773 5.56363 18.5681 7.21497L9.42985 15.0942C8.19186 16.1622 6.16335 16.025 5.06954 14.8883C4.13981 13.8804 4.2293 12.4306 5.2883 11.5213L12.8306 5.01032C12.9897 4.87736 13.2383 4.87736 13.3974 5.01032C13.5515 5.14757 13.5515 5.36203 13.3974 5.49929L5.85012 12.006C5.07949 12.6708 5.01485 13.726 5.69102 14.4594C6.48652 15.3173 7.96813 15.3859 8.86803 14.6095L18.0013 6.726C19.6072 5.34488 19.6072 3.10506 18.0013 1.72308Z"/>
</svg>
