<svg width="20" height="20" viewBox="0 0 20 20" xmlns="http://www.w3.org/2000/svg">
    <path d="M18.1217 0H1.84309C0.840935 0 0 0.959375 0 2.14286V17.8571C0 19.0406 0.840931 20 1.84308 20H18.1217C19.1591 20 20 19.0406 20 17.8571V2.14286C20 0.959375 19.1939 0 18.1217 0ZM4.38271 19.2857H1.87831C1.18803 19.2857 0.626104 18.6446 0.626104 17.8571V16.7857H4.34749L4.38271 19.2857ZM4.38271 16.0714H0.626104V12.5H4.38271V16.0714ZM4.38271 11.7857H0.626104V8.21429H4.38271V11.7857ZM4.38271 7.5H0.626104V3.92857H4.38271V7.5ZM4.34749 3.21429H0.626104V2.14286C0.626104 1.35536 1.18803 0.714286 1.87831 0.714286H4.38271L4.34749 3.21429ZM15.0264 19.2857H5.00881V10.3571H15.0264V19.2857ZM15.0264 9.64286H5.00881V0.714286H15.0264V9.64286ZM19.4091 17.8571C19.4091 18.6446 18.8472 19.2857 18.1569 19.2857H15.6525L15.6525 16.7857H19.4091V17.8571ZM19.4091 16.0714H15.6525V12.5H19.4091V16.0714ZM19.4091 11.7857H15.6525V8.21429H19.4091V11.7857ZM19.4091 7.5H15.6525V3.92857H19.4091V7.5ZM19.4091 3.21429H15.6525V0.714286H18.1569C18.8472 0.714286 19.4091 1.35536 19.4091 2.14286V3.21429Z"/>
</svg>
