<?xml version="1.0" encoding="UTF-8"?><svg id="a" xmlns="http://www.w3.org/2000/svg" viewBox="0 0 54 47">
    <path d="M8.96,8.56v28.44H2.59V8.56h6.37Zm16.99,0l-11.13,14.22-6.48,7.03-1.15-5.92,4.28-6.13,6.68-9.2h7.81Zm-7.38,28.44l-7.85-12.99,4.84-3.77,10.55,16.76h-7.54Z"/>
    <path d="M8.47,8.4h.5v-.5h-.5v.5Zm0,28.44v.5h.5v-.5h-.5Zm-6.37,0h-.5v.5h.5v-.5Zm0-28.44v-.5h-.5v.5h.5Zm23.36,0l.39,.31,.63-.81h-1.03v.5Zm-11.13,14.22l.37,.34h.01v-.03l-.38-.31Zm-3.36-5.02l-.4-.29h0l.41,.29Zm6.68-9.2v-.5h-.25l-.15,.21,.4,.29Zm.43,28.44l-.43,.26,.15,.24h.28v-.5Zm-3.01-16.76l.42-.27-.29-.47-.44,.34,.31,.39Zm10.55,16.76v.5h.91l-.48-.77-.42,.27ZM7.97,30.25v6.59h1V8.4h-1V30.25m.5,6.09H2.11v1h6.37v-1Zm-5.87,.5V8.4H1.61v28.44h1Zm-.5-27.94h6.37v-1H2.11v1Zm22.97-.81l-11.13,14.22,.79,.62,11.13-14.22-.79-.62ZM7.97,26.77h-.01m.01,.99l.24,.22,6.48-7.03-.74-.68-5.99,6.5m0-4l3.41-4.89-.82-.57-2.59,3.71m3.4-3.13l6.68-9.2-.81-.59-6.68,9.2,.81,.59Zm6.28-8.99h7.81v-1h-7.81v1Zm-7.6,15.62l7.6,12.57,.86-.52-7.75-12.82m-.96,.35l.25,.41m.48-.28l4.84-3.77-.61-.79-4.84,3.77,.61,.79Zm4.11-3.9l10.55,16.76,.85-.53L15.5,19.81l-.85,.53Zm10.97,15.99h-7.54v1h7.54v-1Z"/>
    <path d="M32.64,16.48v-4.53c0-.32-.05-.59-.15-.82-.1-.23-.25-.41-.46-.54-.21-.13-.48-.2-.81-.2-.28,0-.52,.05-.73,.15-.2,.1-.36,.24-.47,.42-.1,.18-.16,.41-.16,.67h-3.05c0-.48,.11-.92,.32-1.33,.21-.41,.52-.77,.92-1.08,.4-.31,.89-.55,1.45-.72,.56-.18,1.19-.26,1.88-.26,.83,0,1.56,.14,2.21,.42,.65,.27,1.17,.69,1.54,1.24,.38,.55,.57,1.24,.57,2.07v4.42c0,.64,.04,1.14,.11,1.5,.08,.36,.19,.67,.33,.94v.17h-3.08c-.14-.31-.25-.68-.32-1.13-.07-.46-.11-.92-.11-1.39Zm.38-3.93l.02,1.68h-1.51c-.34,0-.63,.04-.88,.13-.24,.08-.44,.2-.59,.35-.15,.14-.26,.31-.33,.51-.07,.19-.1,.4-.1,.62,0,.21,.05,.41,.16,.59,.1,.17,.25,.3,.43,.4,.18,.1,.39,.15,.63,.15,.4,0,.74-.08,1.02-.23,.29-.16,.51-.35,.66-.57,.16-.23,.23-.44,.23-.63l.73,1.27c-.12,.26-.26,.53-.43,.81-.17,.27-.38,.53-.64,.77-.26,.23-.58,.43-.95,.58-.36,.15-.8,.22-1.32,.22-.66,0-1.27-.13-1.81-.4-.54-.27-.97-.65-1.3-1.12-.32-.48-.48-1.02-.48-1.64,0-.55,.1-1.04,.3-1.47,.2-.43,.5-.79,.91-1.09,.41-.3,.92-.52,1.54-.67,.62-.16,1.34-.23,2.17-.23h1.52Zm4.25,1.27v-.21c0-.77,.11-1.49,.33-2.14,.22-.66,.55-1.23,.98-1.71,.43-.48,.96-.86,1.58-1.12,.62-.27,1.34-.41,2.15-.41s1.54,.14,2.17,.41c.63,.27,1.16,.64,1.59,1.12,.43,.48,.76,1.05,.98,1.71,.22,.65,.33,1.36,.33,2.14v.21c0,.77-.11,1.48-.33,2.14-.22,.65-.55,1.22-.98,1.71-.43,.48-.96,.86-1.58,1.12-.62,.27-1.34,.4-2.16,.4s-1.53-.13-2.16-.4c-.63-.27-1.16-.64-1.59-1.12-.43-.49-.76-1.06-.98-1.71-.22-.66-.33-1.37-.33-2.14Zm3.06-.21v.21c0,.42,.03,.81,.1,1.17,.07,.36,.19,.68,.34,.96,.16,.27,.36,.49,.62,.64,.26,.15,.58,.22,.95,.22s.68-.07,.94-.22c.25-.16,.46-.37,.62-.64,.16-.27,.27-.59,.33-.96,.07-.36,.11-.76,.11-1.17v-.21c0-.41-.04-.79-.11-1.15-.07-.36-.18-.69-.33-.97-.16-.28-.36-.5-.62-.65-.25-.16-.57-.23-.95-.23s-.67,.08-.93,.23c-.25,.16-.46,.37-.62,.65-.16,.28-.27,.6-.34,.97-.07,.36-.1,.74-.1,1.15Z"/>
    <path d="M30.5,10.54l-.21-.45h0l.22,.45Zm-.47,.42l-.43-.26h0l.43,.26Zm-.16,.67v.5h.5v-.5h-.5Zm-3.05,0h-.5v.5h.5v-.5Zm1.24-2.41l-.31-.4h0l.31,.4Zm1.45-.72l.14,.48h0l-.15-.48Zm4.09,.16l-.2,.46h0l.19-.46Zm1.54,1.24l-.41,.28h0l.41-.28Zm.67,8l-.49,.1h0l.49-.1Zm.33,.94h.5v-.13l-.06-.11-.44,.24Zm0,.17v.5h.5v-.5h-.5Zm-3.08,0l-.45,.21,.13,.29h.32v-.5Zm-.32-1.13l-.49,.08h0l.49-.08Zm.27-5.31h.5v-.5h-.5v.5Zm.02,1.68v.5h.51v-.51h-.51Zm-2.39,.13l-.16-.47h0l.17,.47Zm-.59,.35l.35,.36h0l-.35-.36Zm-.33,.51l-.47-.17h0l.47,.17Zm.06,1.21l-.43,.25h0l.43-.25Zm2.08,.31l-.24-.44h0l.24,.44Zm.66-.57l.41,.29h0l-.41-.29Zm.23-.63l.43-.25-.93-1.62v1.87h.5Zm.73,1.27l.46,.21,.1-.23-.13-.22-.43,.25Zm-.43,.81l.43,.26h0l-.43-.26Zm-.64,.77l.33,.37h0l-.34-.37Zm-.95,.58l-.19-.46h0l.19,.46Zm-3.12-.18l-.23,.45h0l.22-.45Zm-1.3-1.12l-.42,.28h0l.41-.28Zm.73-4.21l-.29-.4h0l.3,.4Zm1.54-.67l.12,.49h0l-.12-.49Zm3.81,3.69v-4.53h-1v4.53h1Zm0-4.53c0-.37-.06-.71-.19-1.02l-.92,.39c.06,.15,.11,.35,.11,.62h1Zm-.19-1.02c-.14-.32-.36-.58-.65-.76l-.53,.85c.12,.08,.21,.17,.26,.31l.92-.39Zm-.65-.76c-.31-.19-.68-.27-1.08-.27v1c.27,0,.44,.05,.55,.12l.53-.85Zm-1.08-.27c-.34,0-.66,.06-.94,.19l.42,.91c.13-.06,.3-.1,.52-.1v-1Zm-.95,.2c-.28,.14-.51,.34-.68,.61l.85,.52c.06-.1,.14-.17,.26-.23l-.44-.9Zm-.69,.62c-.16,.28-.22,.59-.22,.92h1c0-.2,.04-.34,.09-.43l-.87-.5Zm.28,.42h-3.05v1h3.05v-1Zm-2.55,.5c0-.4,.09-.76,.27-1.1l-.89-.46c-.25,.48-.38,1.01-.38,1.56h1Zm.27-1.1c.18-.34,.44-.65,.78-.92l-.62-.79c-.45,.35-.8,.77-1.05,1.24l.89,.46Zm.78-.92c.35-.27,.77-.49,1.28-.64l-.29-.96c-.61,.18-1.15,.45-1.61,.81l.61,.79Zm1.29-.64c.5-.16,1.08-.24,1.74-.24v-1c-.74,0-1.42,.09-2.03,.29l.3,.95Zm1.74-.24c.77,0,1.44,.13,2.01,.38l.4-.92c-.72-.31-1.52-.46-2.41-.46v1Zm2.01,.38c.57,.24,1,.59,1.32,1.06l.83-.56c-.43-.64-1.03-1.11-1.76-1.42l-.39,.92Zm1.33,1.06c.31,.44,.48,1.03,.48,1.79h1c0-.91-.21-1.7-.65-2.35l-.82,.57Zm.48,1.79v4.42h1v-4.42h-1Zm0,4.42c0,.65,.04,1.19,.12,1.6l.98-.19c-.06-.32-.1-.78-.1-1.41h-1Zm.12,1.61c.09,.39,.21,.75,.38,1.07l.88-.47c-.12-.22-.21-.49-.28-.81l-.98,.21Zm.32,.83v.17h1v-.17h-1Zm.5-.33h-3.08v1h3.08v-1Zm-2.62,.29c-.12-.25-.21-.58-.28-1l-.99,.16c.08,.48,.19,.91,.36,1.27l.91-.42Zm-.28-1c-.07-.43-.1-.87-.1-1.31h-1c0,.49,.04,.98,.11,1.46l.99-.16Zm-.72-5.23l.02,1.68h1l-.02-1.69h-1Zm.52,1.19h-1.51v1h1.51v-1Zm-1.51,0c-.38,0-.73,.05-1.04,.15l.32,.95c.18-.06,.42-.1,.72-.1v-1Zm-1.04,.16c-.3,.1-.56,.26-.77,.47l.71,.71c.09-.09,.21-.17,.4-.23l-.33-.94Zm-.77,.46c-.21,.2-.36,.43-.46,.7l.94,.34c.05-.12,.11-.23,.21-.32l-.69-.72Zm-.46,.71c-.09,.25-.12,.51-.12,.79h1c0-.18,.03-.33,.07-.46l-.95-.33Zm-.12,.79c0,.3,.07,.58,.23,.84l.86-.51c-.06-.09-.09-.2-.09-.33h-1Zm.23,.85c.15,.25,.36,.44,.62,.58l.47-.88c-.11-.06-.18-.13-.24-.22l-.85,.52Zm.62,.58c.27,.14,.56,.21,.87,.21v-1c-.17,0-.3-.03-.4-.09l-.47,.88Zm.87,.21c.46,0,.89-.09,1.26-.3l-.49-.87c-.19,.11-.44,.17-.77,.17v1Zm1.26-.3c.34-.19,.62-.42,.83-.72l-.82-.58c-.1,.15-.26,.29-.5,.42l.48,.88Zm.84-.72c.19-.28,.32-.59,.32-.92h-1c0,.06-.02,.17-.15,.35l.82,.57Zm-.61-.67l.73,1.27,.87-.5-.73-1.27-.87,.5Zm.71,.81c-.11,.24-.24,.49-.4,.76l.86,.52c.18-.29,.33-.58,.46-.86l-.91-.41Zm-.4,.75c-.14,.23-.33,.45-.56,.67l.68,.73c.29-.27,.53-.56,.73-.88l-.85-.53Zm-.55,.66c-.21,.19-.48,.35-.8,.48l.37,.93c.42-.17,.79-.39,1.09-.67l-.67-.74Zm-.8,.49c-.29,.12-.66,.19-1.13,.19v1c.56,0,1.07-.08,1.51-.26l-.38-.93Zm-1.13,.19c-.6,0-1.12-.12-1.59-.35l-.44,.9c.62,.3,1.3,.45,2.03,.45v-1Zm-1.58-.35c-.47-.24-.84-.56-1.11-.96l-.83,.57c.38,.55,.87,.98,1.49,1.29l.45-.89Zm-1.11-.96c-.26-.39-.39-.83-.39-1.36h-1c0,.71,.18,1.35,.56,1.92l.83-.56Zm-.39-1.36c0-.49,.09-.91,.26-1.26l-.91-.43c-.24,.51-.35,1.07-.35,1.69h1Zm.26-1.26c.16-.35,.41-.65,.75-.9l-.6-.8c-.47,.35-.82,.77-1.06,1.28l.91,.43Zm.75-.9c.35-.25,.8-.45,1.37-.59l-.24-.97c-.67,.16-1.25,.41-1.72,.76l.59,.81Zm1.37-.59c.57-.14,1.25-.22,2.05-.22v-1c-.86,0-1.62,.08-2.29,.25l.24,.97Zm2.05-.22h1.52v-1h-1.52v1Zm6.1-1.57l.47,.16h0l-.47-.16Zm2.56-2.83l.2,.46h0l-.2-.46Zm4.32,0l-.2,.46h0l.19-.46Zm2.57,2.83l-.47,.16h0l.47-.16Zm0,4.48l.47,.16h0l-.47-.16Zm-.98,1.71l.37,.33h0l-.38-.33Zm-7.49,0l-.38,.33h0l.37-.33Zm-.98-1.71l-.47,.16h0l.47-.16Zm2.82-.97l-.49,.09h0l.49-.09Zm.96,1.6l-.26,.43h.01l.25-.43Zm1.88,0l.25,.43h0l-.26-.43Zm.95-1.6l-.49-.1h0l.49,.1Zm0-2.53l-.49,.09h0l.49-.09Zm-.96-1.62l-.26,.43h0l.26-.43Zm-2.83,1.62l-.49-.1h0l.49,.1Zm-2.65,1.36v-.21h-1v.21h1Zm0-.21c0-.73,.1-1.38,.31-1.98l-.95-.32c-.24,.71-.36,1.48-.36,2.3h1Zm.31-1.98c.2-.6,.49-1.11,.88-1.54l-.75-.67c-.48,.54-.84,1.17-1.08,1.88l.95,.32Zm.88-1.54c.38-.42,.84-.76,1.41-1l-.39-.92c-.69,.29-1.28,.71-1.76,1.25l.75,.67Zm1.41-1c.55-.24,1.2-.37,1.95-.37v-1c-.86,0-1.65,.15-2.35,.45l.4,.92Zm1.95-.37c.76,0,1.42,.13,1.97,.37l.4-.92c-.7-.31-1.49-.45-2.37-.45v1Zm1.97,.37c.57,.24,1.04,.57,1.41,1l.75-.67c-.48-.54-1.07-.96-1.77-1.25l-.39,.92Zm1.41,1c.38,.43,.67,.94,.88,1.54l.95-.32c-.24-.72-.6-1.35-1.08-1.88l-.75,.67Zm.88,1.54c.2,.59,.31,1.25,.31,1.98h1c0-.82-.12-1.59-.36-2.3l-.95,.32Zm.31,1.98v.21h1v-.21h-1Zm0,.21c0,.72-.1,1.38-.31,1.98l.95,.32c.24-.71,.36-1.48,.36-2.3h-1Zm-.31,1.98c-.2,.59-.49,1.1-.88,1.54l.75,.66c.48-.54,.83-1.17,1.07-1.88l-.95-.32Zm-.88,1.54c-.38,.42-.84,.76-1.41,1l.39,.92c.69-.29,1.28-.71,1.76-1.25l-.75-.67Zm-1.41,1c-.55,.24-1.2,.36-1.96,.36v1c.87,0,1.66-.14,2.35-.44l-.39-.92Zm-1.96,.36c-.75,0-1.4-.12-1.96-.36l-.39,.92c.7,.3,1.49,.44,2.35,.44v-1Zm-1.96-.36c-.57-.24-1.04-.57-1.41-1l-.75,.67c.48,.54,1.07,.96,1.77,1.25l.39-.92Zm-1.41-.99c-.38-.44-.68-.95-.88-1.54l-.95,.32c.24,.71,.6,1.34,1.07,1.88l.75-.66Zm-.88-1.54c-.2-.6-.31-1.26-.31-1.98h-1c0,.82,.12,1.58,.36,2.3l.95-.32Zm1.75-2.18v.21h1v-.21h-1Zm0,.21c0,.44,.03,.86,.11,1.26l.98-.18c-.06-.33-.09-.69-.09-1.08h-1Zm.11,1.27c.08,.41,.21,.78,.4,1.11l.87-.5c-.12-.22-.22-.48-.29-.81l-.98,.19Zm.4,1.11c.2,.34,.46,.62,.79,.82l.52-.85c-.18-.11-.33-.26-.44-.47l-.87,.5Zm.8,.83c.35,.2,.76,.29,1.2,.29v-1c-.3,0-.53-.06-.7-.16l-.5,.87Zm1.2,.29c.44,0,.84-.09,1.19-.29l-.51-.86c-.16,.09-.38,.16-.68,.16v1Zm1.2-.3c.33-.2,.59-.48,.79-.82l-.87-.5c-.12,.2-.26,.36-.44,.47l.52,.85Zm.79-.82c.19-.33,.32-.71,.39-1.12l-.98-.18c-.06,.32-.15,.58-.27,.8l.87,.5Zm.39-1.11c.08-.4,.12-.82,.12-1.27h-1c0,.39-.03,.75-.1,1.08l.98,.19Zm.12-1.27v-.21h-1v.21h1Zm0-.21c0-.44-.04-.86-.12-1.25l-.98,.2c.06,.32,.1,.67,.1,1.05h1Zm-.12-1.24c-.07-.41-.2-.79-.39-1.12l-.87,.49c.13,.22,.22,.49,.28,.81l.98-.18Zm-.39-1.12c-.2-.35-.46-.64-.8-.84l-.51,.86c.18,.11,.33,.26,.45,.47l.87-.49Zm-.8-.84c-.35-.22-.76-.31-1.21-.31v1c.31,0,.53,.06,.69,.16l.52-.85Zm-1.21-.31c-.44,0-.84,.09-1.19,.31l.52,.85c.16-.1,.37-.16,.67-.16v-1Zm-1.19,.31c-.33,.2-.6,.49-.79,.84l.87,.49c.12-.21,.27-.36,.44-.47l-.52-.85Zm-.79,.84c-.19,.33-.32,.71-.4,1.11l.98,.19c.06-.32,.16-.59,.29-.82l-.87-.49Zm-.4,1.12c-.07,.39-.11,.81-.11,1.24h1c0-.38,.03-.74,.09-1.06l-.98-.18Z"/>
    <path d="M30.77,34.54v2.46h-7.18v-2.46h7.18Zm-6.09-11.76v14.22h-3.18v-14.22h3.18Zm10.71,3.65v10.57h-3.06v-10.57h3.06Zm-3.24-2.73c0-.44,.16-.8,.47-1.08,.31-.29,.72-.43,1.23-.43s.92,.14,1.23,.43c.32,.28,.48,.64,.48,1.08s-.16,.8-.48,1.08c-.31,.28-.72,.42-1.23,.42s-.92-.14-1.23-.42c-.31-.29-.47-.65-.47-1.08Zm11.06,10.36c0-.2-.06-.37-.19-.52-.12-.15-.33-.29-.64-.41-.31-.12-.74-.25-1.3-.37-.53-.11-1.02-.25-1.47-.43-.46-.18-.85-.4-1.19-.65-.34-.26-.6-.57-.79-.92-.19-.36-.28-.76-.28-1.22s.09-.86,.28-1.26c.2-.4,.48-.75,.84-1.05,.37-.31,.82-.55,1.35-.72,.53-.18,1.14-.26,1.82-.26,.93,0,1.74,.15,2.41,.44,.68,.29,1.2,.69,1.56,1.21,.36,.51,.55,1.1,.55,1.77h-3.05c0-.27-.05-.51-.16-.71-.1-.2-.26-.36-.48-.47-.21-.12-.5-.18-.85-.18-.27,0-.51,.05-.72,.15-.2,.09-.36,.22-.48,.38-.11,.16-.17,.35-.17,.57,0,.15,.03,.29,.1,.41,.07,.12,.18,.23,.32,.33,.15,.1,.34,.19,.58,.26,.24,.08,.53,.15,.88,.22,.74,.14,1.41,.33,2.01,.58,.61,.25,1.1,.59,1.46,1.03,.37,.44,.56,1.01,.56,1.73,0,.47-.11,.9-.32,1.29-.21,.39-.51,.73-.91,1.03-.4,.29-.87,.52-1.43,.68-.55,.16-1.18,.24-1.88,.24-1,0-1.84-.18-2.53-.54-.69-.36-1.21-.81-1.56-1.35-.35-.55-.52-1.11-.52-1.68h2.86c.01,.35,.1,.64,.26,.86,.17,.22,.39,.38,.65,.49,.27,.1,.57,.15,.9,.15s.61-.05,.83-.14c.22-.09,.39-.21,.51-.37,.12-.16,.18-.35,.18-.56Zm10.02-7.63v2.14h-6.27v-2.14h6.27Zm-4.83-2.62h3.06v9.87c0,.29,.04,.52,.11,.67,.07,.16,.19,.27,.35,.33,.16,.06,.37,.09,.62,.09,.18,0,.34,0,.47-.02,.13-.01,.25-.03,.36-.05v2.21c-.26,.08-.54,.15-.83,.2-.29,.05-.61,.08-.96,.08-.66,0-1.23-.11-1.71-.32-.48-.21-.84-.55-1.09-1.02-.25-.47-.38-1.08-.38-1.83v-10.21Z"/>
    <path d="M30.77,34.54h.5v-.5h-.5v.5Zm0,2.46v.5h.5v-.5h-.5Zm-7.18,0h-.5v.5h.5v-.5Zm0-2.46v-.5h-.5v.5h.5Zm1.08-11.76h.5v-.5h-.5v.5Zm0,14.22v.5h.5v-.5h-.5Zm-3.18,0h-.5v.5h.5v-.5Zm0-14.22v-.5h-.5v.5h.5Zm8.78,11.76v2.46h1v-2.46h-1Zm.5,1.96h-7.18v1h7.18v-1Zm-6.68,.5v-2.46h-1v2.46h1Zm-.5-1.96h7.18v-1h-7.18v1Zm.58-12.26v14.22h1v-14.22h-1Zm.5,13.72h-3.18v1h3.18v-1Zm-2.68,.5v-14.22h-1v14.22h1Zm-.5-13.72h3.18v-1h-3.18v1Zm13.9,3.15h.5v-.5h-.5v.5Zm0,10.57v.5h.5v-.5h-.5Zm-3.06,0h-.5v.5h.5v-.5Zm0-10.57v-.5h-.5v.5h.5Zm.28-3.82l.33,.37h0l-.34-.37Zm2.46,0l-.34,.37h0l.33-.37Zm0,2.17l.33,.37h0l-.33-.37Zm-2.46,0l-.34,.37h0l.33-.37Zm2.27,1.65v10.57h1v-10.57h-1Zm.5,10.07h-3.06v1h3.06v-1Zm-2.56,.5v-10.57h-1v10.57h1Zm-.5-10.07h3.06v-1h-3.06v1Zm.31-3.23c0-.31,.1-.53,.3-.71l-.67-.74c-.42,.38-.64,.88-.64,1.46h1Zm.31-.72c.2-.19,.48-.3,.89-.3v-1c-.61,0-1.15,.17-1.57,.56l.68,.74Zm.89-.3c.41,0,.69,.11,.89,.3l.68-.74c-.42-.39-.96-.56-1.57-.56v1Zm.9,.31c.21,.18,.31,.4,.31,.71h1c0-.58-.22-1.08-.65-1.46l-.66,.75Zm.31,.71c0,.3-.1,.52-.31,.71l.67,.74c.43-.38,.64-.88,.64-1.46h-1Zm-.31,.71c-.2,.18-.48,.29-.9,.29v1c.6,0,1.14-.17,1.56-.55l-.67-.74Zm-.9,.29c-.41,0-.69-.11-.9-.29l-.67,.74c.42,.38,.96,.55,1.56,.55v-1Zm-.89-.29c-.21-.19-.31-.41-.31-.72h-1c0,.57,.21,1.07,.63,1.45l.68-.74Zm10.07,9.13l-.39,.31h0l.39-.31Zm-.64-.41l-.19,.46h0l.18-.46Zm-1.3-.37l.11-.49h0l-.1,.49Zm-1.47-.43l-.19,.46h0l.18-.46Zm-1.19-.65l-.3,.4h0l.3-.4Zm-.79-.92l-.44,.23h0l.44-.23Zm0-2.48l-.45-.22h0l.45,.22Zm.84-1.05l-.32-.39h0l.32,.39Zm1.35-.72l-.16-.48h0l.16,.48Zm4.23,.18l-.2,.46h0l.19-.46Zm1.56,1.21l-.41,.29h0l.41-.29Zm.55,1.77v.5h.5v-.5h-.5Zm-3.05,0h-.5v.5h.5v-.5Zm-.63-1.18l-.24,.44h.01l.23-.44Zm-1.57-.03l.21,.46h0l-.21-.46Zm-.48,.38l-.41-.29h0l.41,.29Zm-.07,.98l-.44,.23h0v.03l.44-.26Zm.32,.33l-.29,.4h.02l.27-.4Zm.58,.26l-.16,.47h0l.15-.47Zm.88,.22l-.1,.49h.01l.09-.49Zm2.01,.58l-.19,.46h0l.19-.46Zm1.46,1.03l-.38,.32h0l.38-.32Zm.23,3.02l-.44-.24h0l.44,.24Zm-8.3,.07l-.42,.27h0l.42-.27Zm-.52-1.68v-.5h-.5v.5h.5Zm2.86,0l.5-.02-.02-.48h-.48v.5Zm.26,.86l-.4,.3h0l.4-.3Zm.65,.49l-.18,.47h0l.17-.47Zm2.24-.36l.4,.3h0l-.41-.3Zm.68-.56c0-.31-.1-.6-.3-.84l-.77,.64c.05,.06,.07,.12,.07,.2h1Zm-.29-.83c-.2-.25-.51-.43-.85-.57l-.37,.93c.28,.11,.4,.21,.43,.25l.79-.62Zm-.85-.57c-.34-.14-.81-.27-1.38-.4l-.22,.98c.55,.12,.95,.24,1.22,.35l.37-.93Zm-1.38-.4c-.5-.11-.97-.24-1.4-.41l-.36,.93c.48,.19,1,.34,1.55,.45l.21-.98Zm-1.39-.4c-.42-.17-.78-.37-1.08-.59l-.6,.8c.38,.28,.82,.52,1.31,.72l.37-.93Zm-1.07-.59c-.29-.22-.5-.47-.66-.76l-.88,.47c.22,.42,.54,.78,.93,1.08l.61-.79Zm-.65-.75c-.15-.28-.23-.6-.23-.99h-1c0,.53,.11,1.02,.34,1.45l.88-.47Zm-.23-.99c0-.37,.08-.72,.23-1.05l-.9-.43c-.22,.46-.33,.96-.33,1.47h1Zm.23-1.04c.16-.33,.4-.63,.71-.89l-.64-.77c-.41,.35-.74,.75-.97,1.22l.9,.44Zm.71-.89c.32-.26,.71-.47,1.19-.63l-.32-.95c-.58,.19-1.08,.46-1.51,.81l.64,.77Zm1.19-.63c.47-.16,1.03-.24,1.66-.24v-1c-.72,0-1.38,.09-1.97,.29l.31,.95Zm1.66-.24c.88,0,1.61,.14,2.21,.4l.4-.92c-.75-.33-1.63-.48-2.61-.48v1Zm2.22,.4c.6,.26,1.05,.6,1.35,1.04l.82-.57c-.43-.61-1.03-1.07-1.78-1.38l-.39,.92Zm1.35,1.04c.3,.43,.45,.91,.45,1.48h1c0-.76-.21-1.45-.64-2.06l-.82,.58Zm.95,.98h-3.05v1h3.05v-1Zm-2.55,.5c0-.34-.06-.66-.21-.94l-.89,.46c.06,.12,.1,.27,.1,.48h1Zm-.21-.94c-.16-.3-.39-.53-.69-.68l-.46,.89c.13,.07,.21,.15,.26,.25l.89-.46Zm-.68-.68c-.31-.17-.69-.24-1.09-.24v1c.3,0,.49,.05,.61,.11l.48-.88Zm-1.09-.24c-.33,0-.65,.06-.93,.19l.42,.91c.13-.06,.3-.1,.51-.1v-1Zm-.93,.19c-.27,.12-.5,.3-.68,.54l.81,.58c.06-.08,.15-.16,.28-.22l-.41-.91Zm-.69,.56c-.17,.25-.25,.54-.25,.85h1c0-.12,.03-.21,.08-.29l-.83-.56Zm-.25,.85c0,.22,.05,.44,.16,.64l.88-.47s-.04-.1-.04-.18h-1Zm.17,.67c.11,.19,.27,.34,.45,.48l.59-.81c-.1-.08-.16-.14-.19-.19l-.85,.52Zm.48,.49c.2,.13,.43,.23,.69,.32l.32-.95c-.21-.07-.36-.14-.46-.21l-.55,.84Zm.7,.32c.26,.09,.58,.16,.93,.24l.2-.98c-.33-.07-.61-.14-.83-.21l-.31,.95Zm.94,.24c.71,.13,1.34,.31,1.91,.55l.38-.93c-.64-.26-1.35-.46-2.11-.6l-.18,.98Zm1.92,.55c.55,.22,.96,.52,1.27,.88l.77-.64c-.43-.51-.99-.9-1.66-1.17l-.37,.93Zm1.27,.89c.28,.32,.44,.78,.44,1.4h1c0-.8-.21-1.5-.68-2.05l-.76,.65Zm.44,1.4c0,.39-.09,.74-.26,1.05l.88,.48c.26-.47,.38-.98,.38-1.53h-1Zm-.26,1.05c-.17,.32-.42,.6-.76,.86l.59,.8c.45-.33,.81-.73,1.05-1.19l-.88-.47Zm-.76,.86c-.34,.25-.76,.46-1.27,.61l.28,.96c.6-.18,1.13-.43,1.58-.76l-.59-.8Zm-1.27,.61c-.5,.15-1.08,.22-1.73,.22v1c.73,0,1.41-.09,2.02-.26l-.28-.96Zm-1.73,.22c-.94,0-1.7-.17-2.3-.48l-.46,.89c.78,.4,1.71,.59,2.76,.59v-1Zm-2.3-.48c-.63-.33-1.08-.72-1.37-1.18l-.84,.55c.41,.63,1,1.13,1.75,1.52l.46-.89Zm-1.37-1.17c-.3-.48-.44-.95-.44-1.41h-1c0,.68,.21,1.33,.59,1.95l.85-.53Zm-.94-.91h2.86v-1h-2.86v1Zm2.36-.48c.02,.42,.12,.82,.36,1.14l.81-.59c-.09-.12-.16-.3-.17-.58l-1,.04Zm.37,1.14c.23,.3,.52,.51,.87,.65l.36-.93c-.18-.07-.33-.18-.44-.33l-.79,.61Zm.88,.65c.33,.12,.69,.18,1.07,.18v-1c-.28,0-.52-.04-.73-.12l-.34,.94Zm1.07,.18c.37,0,.72-.05,1.02-.17l-.38-.92c-.14,.06-.35,.1-.64,.1v1Zm1.02-.17c.29-.12,.54-.29,.72-.53l-.8-.6c-.05,.07-.14,.14-.3,.21l.38,.92Zm.72-.54c.18-.25,.27-.54,.27-.85h-1c0,.11-.03,.19-.08,.26l.81,.58Zm9.79-8.48h.5v-.5h-.5v.5Zm0,2.14v.5h.5v-.5h-.5Zm-6.27,0h-.5v.5h.5v-.5Zm0-2.14v-.5h-.5v.5h.5Zm1.44-2.62v-.5h-.5v.5h.5Zm3.06,0h.5v-.5h-.5v.5Zm.46,10.88l-.19,.46h.02l.17-.46Zm1.46,.02h.5v-.6l-.59,.1,.09,.49Zm0,2.21l.15,.48,.35-.11v-.36h-.5Zm-.83,.2l-.08-.49h-.01l.09,.49Zm-2.67-.24l-.21,.46h0l.2-.46Zm-1.09-1.02l-.44,.24h0l.44-.24Zm3.95-9.42v2.14h1v-2.14h-1Zm.5,1.64h-6.27v1h6.27v-1Zm-5.77,.5v-2.14h-1v2.14h1Zm-.5-1.64h6.27v-1h-6.27v1Zm1.44-2.62h3.06v-1h-3.06v1Zm2.56-.5v9.87h1v-9.87h-1Zm0,9.87c0,.32,.04,.63,.15,.88l.91-.42c-.03-.06-.06-.2-.06-.47h-1Zm.15,.88c.13,.28,.34,.48,.62,.59l.37-.93s-.07-.04-.08-.08l-.91,.42Zm.64,.59c.24,.09,.51,.12,.79,.12v-1c-.22,0-.37-.03-.46-.06l-.34,.94Zm.79,.12c.19,0,.37,0,.52-.02l-.1-.99c-.11,.01-.25,.02-.42,.02v1Zm.52-.02c.14-.01,.27-.03,.4-.05l-.17-.98c-.1,.02-.2,.03-.32,.04l.1,.99Zm-.19-.55v2.21h1v-2.21h-1Zm.35,1.73c-.23,.08-.48,.13-.75,.18l.15,.99c.32-.05,.62-.12,.91-.21l-.31-.95Zm-.76,.18c-.26,.05-.55,.07-.87,.07v1c.37,0,.72-.03,1.04-.09l-.17-.98Zm-.87,.07c-.6,0-1.1-.1-1.51-.28l-.41,.91c.56,.25,1.2,.37,1.91,.37v-1Zm-1.5-.28c-.38-.17-.66-.43-.86-.8l-.88,.48c.31,.56,.75,.97,1.33,1.23l.41-.91Zm-.86-.8c-.2-.37-.32-.89-.32-1.59h-1c0,.8,.13,1.5,.44,2.06l.88-.48Zm-.32-1.59v-10.21h-1v10.21h1Z"/></svg>