<svg width="15" height="14" viewBox="0 0 15 14" xmlns="http://www.w3.org/2000/svg">
    <path d="M14.0279 0.500995V2.50498C14.0279 2.78052 13.8024 3.00597 13.5269 3.00597C13.2513 3.00597 13.0259 2.78052 13.0259 2.50498V1.00199H7.51493V13.0259H9.51891C9.79446 13.0259 10.0199 13.2513 10.0199 13.4987C10.0199 13.7742 9.79446 14 9.51891 14H4.50896C4.23341 14 4.00796 13.7742 4.00796 13.4987C4.00796 13.2513 4.23341 13.0259 4.48078 13.0259H6.51294V1.00199H1.00199V2.50498C1.00199 2.78052 0.776543 3.00597 0.500995 3.00597C0.225448 3.00597 0 2.78052 0 2.50498V0.500995C0 0.224195 0.224289 0 0.500995 0H13.5269C13.8024 0 14.0279 0.224195 14.0279 0.500995Z"/>
    <path d="M13.6772 7.51493H0.350697C0.156849 7.51493 0 7.29261 0 7.01393C0 6.73526 0.156849 6.51294 0.350697 6.51294H13.6772C13.871 6.51294 14.0279 6.73623 14.0279 7.013C14.0279 7.28976 13.8701 7.51493 13.6772 7.51493Z"/>
</svg>
