<svg width="9" height="10" viewBox="0 0 9 10" xmlns="http://www.w3.org/2000/svg">
    <path d="M8.94356 4.56027C8.82637 4.82589 8.55216 5 8.24982 5H5.99987V9.28571C5.99987 9.68013 5.66401 10 5.24988 10H3.74991C3.33578 10 2.99993 9.68013 2.99993 9.28571V5H0.749973C0.446698 5 0.173188 4.82596 0.0571748 4.55915C-0.0589791 4.29241 0.00511649 3.98438 0.219711 3.78125L3.94854 0.209821C4.11553 0.0698661 4.30771 0 4.4999 0C4.69208 0 4.88379 0.0697545 5.03004 0.209263L8.77996 3.78069C8.99512 3.98438 9.0584 4.29241 8.94356 4.56027Z"/>
</svg>
