<svg width="16" height="14" viewBox="0 0 16 14" xmlns="http://www.w3.org/2000/svg">
    <path d="M15.5831 3.93084L11.4497 0.145323C11.0881 -0.185376 10.5184 0.0833905 10.5184 0.59838V2.62974C6.60686 2.67439 3.50613 3.45423 3.50613 7.1384C3.50613 8.62577 4.47031 10.0994 5.5353 10.8691C5.86783 11.1097 6.34116 10.8078 6.21844 10.4183C5.11401 6.90831 7.01225 6.13587 10.5184 6.11122V8.14367C10.5184 8.65918 11.0892 8.9268 11.4502 8.59591L15.5836 4.81039C15.8433 4.59646 15.8433 4.16915 15.5831 3.93084ZM11.3949 10.5185C10.9109 10.5185 10.5184 10.911 10.5184 11.3951V12.2469L1.75306 12.2469V3.50627H2.62959C3.1136 3.50627 3.50613 3.11403 3.50613 2.62974C3.50613 2.14546 3.11443 1.75321 2.62959 1.75321H1.75306C0.78477 1.75321 0 2.53798 0 3.50627V12.2469C0 13.215 0.78477 14 1.75306 14L10.5184 14C11.4867 14 12.2714 13.2149 12.2714 12.2469V11.3951C12.2714 10.9102 11.8797 10.5185 11.3949 10.5185Z"/>
</svg>
