<svg width="15" height="15" viewBox="0 0 15 15" xmlns="http://www.w3.org/2000/svg">
    <path d="M13.7624 1.72052V3.50263C13.7624 3.74767 13.5617 3.94816 13.3164 3.94816C13.0711 3.94816 12.8704 3.74767 12.8704 3.50263V2.16605H7.96463V12.8587H9.74856C9.99385 12.8587 10.1945 13.0592 10.1945 13.2792C10.1945 13.5242 9.99385 13.725 9.74856 13.725H5.28874C5.04345 13.725 4.84276 13.5242 4.84276 13.2792C4.84276 13.0592 5.04345 12.8587 5.26366 12.8587H7.07267V2.16605H2.16687V3.50263C2.16687 3.74767 1.96617 3.94816 1.72088 3.94816C1.47559 3.94816 1.2749 3.74767 1.2749 3.50263V1.72052C1.2749 1.47437 1.47456 1.27499 1.72088 1.27499H13.3164C13.5617 1.27499 13.7624 1.47437 13.7624 1.72052Z" />
</svg>
