<svg width="14" height="14" viewBox="0 0 14 14" xmlns="http://www.w3.org/2000/svg">
    <path d="M13.0979 0.422677V2.11339C13.0979 2.34586 12.8874 2.53606 12.6301 2.53606C12.3728 2.53606 12.1623 2.34586 12.1623 2.11339V0.845355H7.01671V10.9896H8.88783C9.14511 10.9896 9.35561 11.1798 9.35561 11.3885C9.35561 11.621 9.14511 11.8115 8.88783 11.8115H4.21002C3.95274 11.8115 3.74224 11.621 3.74224 11.3885C3.74224 11.1798 3.95274 10.9896 4.18371 10.9896H6.08115V0.845355H0.935561V2.11339C0.935561 2.34586 0.72506 2.53606 0.46778 2.53606C0.210501 2.53606 0 2.34586 0 2.11339V0.422677C0 0.189148 0.209419 0 0.46778 0H12.6301C12.8874 0 13.0979 0.189148 13.0979 0.422677Z"/>
    <path d="M12.4927 14H0.605187C0.432271 14 0.292358 13.5858 0.292358 13.0665C0.292358 12.5473 0.432271 12.1331 0.605187 12.1331H12.4927C12.6656 12.1331 12.8055 12.5491 12.8055 13.0648C12.8055 13.5805 12.6647 14 12.4927 14Z"/>
</svg>
