<svg width="17" height="13" viewBox="0 0 17 13" xmlns="http://www.w3.org/2000/svg">
    <path d="M14.3609 3.23983C14.3711 3.38201 14.3711 3.52422 14.3711 3.6664C14.3711 8.0031 11.0703 13 5.0375 13C3.1789 13 1.45235 12.4617 0 11.5274C0.264072 11.5578 0.517953 11.568 0.792185 11.568C2.32575 11.568 3.7375 11.05 4.86484 10.1664C3.42265 10.1359 2.21405 9.19141 1.79764 7.8914C2.00078 7.92185 2.20389 7.94217 2.4172 7.94217C2.71172 7.94217 3.00627 7.90153 3.28047 7.83047C1.77735 7.52576 0.649973 6.20546 0.649973 4.61093V4.57032C1.08668 4.81407 1.59453 4.96641 2.13277 4.9867C1.24918 4.39763 0.670294 3.39217 0.670294 2.25466C0.670294 1.6453 0.832764 1.08671 1.11716 0.599204C2.73201 2.58983 5.15937 3.88981 7.88121 4.03202C7.83044 3.78827 7.79996 3.53438 7.79996 3.28047C7.79996 1.47264 9.26247 0 11.0804 0C12.025 0 12.8781 0.396093 13.4773 1.03594C14.2187 0.893757 14.9296 0.619524 15.5593 0.243752C15.3156 1.00549 14.7976 1.64533 14.1172 2.05155C14.7773 1.98049 15.4172 1.79764 16.0062 1.54376C15.5594 2.19373 15.0008 2.77262 14.3609 3.23983Z"/>
</svg>
