<svg width="25" height="20" viewBox="0 0 25 20" xmlns="http://www.w3.org/2000/svg">
    <path d="M24.7617 18.8828C25.0352 19.0977 25.0781 19.457 24.8672 19.7617C24.6523 20.0352 24.2578 20.0781 23.9883 19.8672L0.237732 1.11562C-0.0331782 0.90156 -0.0794165 0.508591 0.13449 0.237732C0.348357 -0.0331782 0.741404 -0.0794165 1.01211 0.13449L24.7617 18.8828ZM23.6523 10.4805C23.2539 11.4414 22.5469 12.707 21.5469 13.957L20.5664 13.1836C21.4883 11.9961 22.1406 10.8633 22.5 10C21.9805 8.71484 20.8555 6.83984 19.1719 5.3125C17.4883 3.74961 15.25 2.5 12.5 2.5C10.9453 2.5 9.55469 2.89883 8.33594 3.52773L7.26953 2.68672C8.75 1.82812 10.5 1.21484 12.5 1.21484C15.6562 1.21484 18.1836 2.68906 20.0234 4.39844C21.8516 6.09375 23.0742 8.08984 23.6523 9.51953C23.7813 9.82812 23.7813 10.1719 23.6523 10.4805ZM3.45273 6.04297L4.43359 6.8164C3.51015 7.96875 2.86054 9.13672 2.46484 9.96484C3.0207 11.25 4.14453 13.125 5.82812 14.6875C7.51172 16.25 9.75 17.5 12.4648 17.5C14.0547 17.5 15.4453 17.1016 16.6641 16.4727L17.7305 17.3125C16.2148 18.1719 14.5 18.75 12.4648 18.75C9.34375 18.75 6.8164 17.3125 4.97656 15.6016C3.14922 13.8711 1.92734 11.875 1.34609 10.4805C1.21797 10.1719 1.21797 9.82812 1.34609 9.51953C1.74726 8.55859 2.45312 7.29297 3.45273 6.04297ZM7.46484 9.96484C7.46484 9.75391 7.51953 9.51562 7.55078 9.27734L8.75781 10.2305C8.875 12.1953 10.4727 13.75 12.4648 13.75C12.7187 13.75 12.9375 13.7305 13.1445 13.6953L14.3516 14.6445C13.7773 14.875 13.1523 15 12.4648 15C9.73828 15 7.46484 12.7617 7.46484 9.96484ZM17.5 9.96484C17.5 10.2461 17.4805 10.4844 17.4492 10.7227L16.2422 9.76953C16.125 7.80469 14.4922 6.21484 12.4648 6.21484C12.2812 6.21484 12.0625 6.26953 11.8555 6.30469L10.6484 5.35547C11.2227 5.125 11.8477 4.96484 12.4648 4.96484C15.2617 4.96484 17.5 7.23828 17.5 9.96484Z"/>
</svg>
