<svg width="10" height="10" viewBox="0 0 10 10" xmlns="http://www.w3.org/2000/svg">
    <path d="M8.57143 0H1.42857C0.639509 0 0 0.639509 0 1.42857V8.57143C0 9.36049 0.639509 10 1.42857 10H8.57143C9.36049 10 10 9.36049 10 8.57143V1.42857C10 0.639509 9.35938 0 8.57143 0ZM4.46429 2.67857C4.46429 2.38393 4.70536 2.14286 5 2.14286C5.29464 2.14286 5.53571 2.38281 5.53571 2.67857V5.53571C5.53571 5.83147 5.29576 6.07143 5 6.07143C4.70424 6.07143 4.46429 5.83259 4.46429 5.53571V2.67857ZM5 8.21429C4.6125 8.21429 4.29821 7.9 4.29821 7.5125C4.29821 7.125 4.61228 6.81071 5 6.81071C5.38772 6.81071 5.70179 7.125 5.70179 7.5125C5.70089 7.89955 5.38839 8.21429 5 8.21429Z"/>
</svg>
