<svg width="23" height="23" viewBox="0 0 23 23" xmlns="http://www.w3.org/2000/svg">
<path d="M14.9711 7.42001L20.9575 8.33084C21.4532 8.40387 21.8698 8.76477 22.0281 9.25885C22.1864 9.75722 22.0572 10.2986 21.699 10.668L17.3582 15.0589L18.383 21.3573C18.4663 21.8729 18.2622 22.397 17.8456 22.7021C17.4332 23.0071 16.8874 23.0458 16.4417 22.8009L11.0927 19.8579L5.74798 22.8009C5.29807 23.0458 4.75234 23.0071 4.33993 22.7021C3.92751 22.397 3.71922 21.8729 3.8067 21.3573L4.83149 15.0589L0.489858 10.668C0.13118 10.2986 0.00370501 9.75722 0.161174 9.25885C0.318226 8.76477 0.73356 8.40387 1.23304 8.33084L7.21435 7.42001L9.89715 1.73467C10.1179 1.26138 10.5845 0.960938 11.0927 0.960938C11.6051 0.960938 12.0717 1.26138 12.2925 1.73467L14.9711 7.42001Z"/>
</svg>
