<svg width="11" height="11" viewBox="0 0 11 11" xmlns="http://www.w3.org/2000/svg">
<path d="M0.6875 1.375L0.6875 6.1875C0.6875 6.56777 0.994726 6.875 1.375 6.875H2.40625C2.59531 6.875 2.75 7.02969 2.75 7.21875C2.75 7.40781 2.59531 7.5625 2.40625 7.5625H1.375C0.616602 7.5625 0 6.9459 0 6.1875L0 1.375C0 0.615527 0.616602 0 1.375 0L6.1875 0C6.9459 0 7.5625 0.615527 7.5625 1.375V2.40625C7.5625 2.59531 7.40781 2.75 7.21875 2.75C7.02969 2.75 6.875 2.59531 6.875 2.40625V1.375C6.875 0.995371 6.56777 0.6875 6.1875 0.6875L1.375 0.6875C0.994726 0.6875 0.6875 0.995371 0.6875 1.375ZM9.625 3.4375C10.3845 3.4375 11 4.0541 11 4.8125L11 9.625C11 10.3834 10.3845 11 9.625 11L4.8125 11C4.0541 11 3.4375 10.3834 3.4375 9.625L3.4375 4.8125C3.4375 4.0541 4.0541 3.4375 4.8125 3.4375L9.625 3.4375ZM4.125 4.8125L4.125 9.625C4.125 10.0053 4.43223 10.3125 4.8125 10.3125L9.625 10.3125C10.0046 10.3125 10.3125 10.0053 10.3125 9.625L10.3125 4.8125C10.3125 4.43223 10.0046 4.125 9.625 4.125L4.8125 4.125C4.43223 4.125 4.125 4.43223 4.125 4.8125Z"/>
</svg>
