<svg width="24" height="20" viewBox="0 0 24 20"  xmlns="http://www.w3.org/2000/svg">
    <path d="M17.1743 10.1109C17.1743 13.1795 14.9416 15.6665 12.1867 15.6665C9.43177 15.6665 7.19902 13.1795 7.19902 10.1109C7.19902 7.04232 9.43177 4.55534 12.1867 4.55534C14.9416 4.55534 17.1743 7.04232 17.1743 10.1109ZM12.1867 5.94423C10.0864 5.94423 8.44593 7.77149 8.44593 10.1109C8.44593 12.4112 10.0864 14.2776 12.1867 14.2776C14.2519 14.2776 15.9274 12.4112 15.9274 10.1109C15.9274 7.77149 14.2519 5.94423 12.1867 5.94423ZM19.6915 3.88694C21.5151 5.77062 22.7348 7.9885 23.3115 9.57704C23.4401 9.91992 23.4401 10.3019 23.3115 10.6447C22.7348 12.1942 21.5151 14.4121 19.6915 16.3349C17.8562 18.2359 15.3351 19.8331 12.1867 19.8331C9.03821 19.8331 6.51711 18.2359 4.68259 16.3349C2.85898 14.4121 1.64012 12.1942 1.06035 10.6447C0.93248 10.3019 0.93248 9.91992 1.06035 9.57704C1.64012 7.9885 2.85898 5.77062 4.68259 3.88694C6.51711 1.98763 9.03821 0.388672 12.1867 0.388672C15.3351 0.388672 17.8562 1.98763 19.6915 3.88694ZM2.21137 10.1109C2.73078 11.4998 3.853 13.5831 5.53127 15.3192C7.21071 17.0553 9.44346 18.4442 12.1867 18.4442C14.9299 18.4442 17.1626 17.0553 18.8421 15.3192C20.5215 13.5831 21.6437 11.4998 22.162 10.1109C21.6437 8.68294 20.5215 6.59961 18.8421 4.90256C17.1626 3.16602 14.9299 1.77756 12.1867 1.77756C9.44346 1.77756 7.21071 3.16602 5.53127 4.90256C3.853 6.59961 2.73078 8.68294 2.21137 10.1109Z" />
</svg>