<svg width="16" height="14" viewBox="0 0 16 14" xmlns="http://www.w3.org/2000/svg">
    <path d="M0 0.28C0 0.1253 0.1253 0 0.28 0H15.4C15.554 0 15.68 0.1253 15.68 0.28C15.68 0.4347 15.554 0.56 15.4 0.56H0.28C0.1253 0.56 0 0.4347 0 0.28ZM6.72 4.76C6.72 4.606 6.846 4.48 7 4.48H15.4C15.554 4.48 15.68 4.606 15.68 4.76C15.68 4.914 15.554 5.04 15.4 5.04H7C6.846 5.04 6.72 4.914 6.72 4.76ZM15.4 8.96C15.554 8.96 15.68 9.086 15.68 9.24C15.68 9.394 15.554 9.52 15.4 9.52H7C6.846 9.52 6.72 9.394 6.72 9.24C6.72 9.086 6.846 8.96 7 8.96H15.4ZM0 13.72C0 13.566 0.1253 13.44 0.28 13.44H15.4C15.554 13.44 15.68 13.566 15.68 13.72C15.68 13.874 15.554 14 15.4 14H0.28C0.1253 14 0 13.874 0 13.72ZM3.563 3.836C3.9305 3.5035 4.4485 3.794 4.4485 4.2665V9.7335C4.4485 10.206 3.9305 10.465 3.563 10.164L0.2135 7.434C-0.02695 7.1785 -0.02695 6.79 0.2135 6.566L3.563 3.836ZM0.60095 7L3.8885 9.7335V4.2665L0.60095 7Z"/>
</svg>