<svg width="33" height="33" viewBox="0 0 33 33" xmlns="http://www.w3.org/2000/svg">
    <path d="M32.4996 30.3574L23.8605 21.7207C25.7302 19.4326 26.7617 16.5516 26.7617 13.4062C26.7617 6.00059 20.7576 0 13.3518 0C5.94612 0 0 6.00252 0 13.4062C0 20.81 6.0035 26.8125 13.3518 26.8125C16.4974 26.8125 19.383 25.7226 21.6685 23.9095L30.3076 32.5462C30.6686 32.8518 31.0683 33 31.4616 33C31.8549 33 32.2533 32.8489 32.5556 32.5468C33.1572 31.943 33.1572 30.9633 32.4996 30.3574ZM3.09459 13.4062C3.09459 7.7202 7.72228 3.09375 13.4099 3.09375C19.0974 3.09375 23.7251 7.7202 23.7251 13.4062C23.7251 19.0923 19.0974 23.7188 13.4099 23.7188C7.72228 23.7188 3.09459 19.091 3.09459 13.4062Z"/>
</svg>
