<svg width="15" height="15" viewBox="0 0 15 15" xmlns="http://www.w3.org/2000/svg">
<path d="M14.7803 13.6808C15.1135 14.021 15.0617 14.5272 14.6656 14.8128C14.4874 14.9397 14.2764 15 14.0616 15C13.7943 15 13.5288 14.9027 13.3433 14.7133L7.49957 8.74909L1.65622 14.7121C1.46991 14.9029 1.2043 15 0.936743 15C0.72375 15 0.51021 14.9383 0.33444 14.8117C-0.0616261 14.526 -0.113576 14.0195 0.219683 13.6797L6.277 7.50025L0.2198 1.32099C-0.113419 0.980822 -0.061548 0.474589 0.334558 0.188995C0.730116 -0.0972674 1.32187 -0.0534072 1.65544 0.287095L7.49957 6.25141L13.3429 0.288434C13.6768 -0.0520681 14.2675 -0.0955934 14.6635 0.190067C15.0596 0.475727 15.1115 0.982228 14.7783 1.32206L8.72214 7.50025L14.7803 13.6808Z" />
</svg>
