<svg width="56" height="56" viewBox="0 0 56 56" xmlns="http://www.w3.org/2000/svg">
<path d="M33.65,30.88a6.23,6.23,0,0,1,3.42-1,6.78,6.78,0,0,1,1.88.29h0V21.73L26.65,25.35Z" />
<path d="M28,0A28,28,0,1,0,56,28,28,28,0,0,0,28,0ZM23.89,38.21c0,2.59-2.51,4.68-5.57,4.68s-5.57-2-5.57-4.63,2.47-4.64,5.57-4.64a6.78,6.78,0,0,1,1.88.29V27.48l3.7,2.83ZM46.2,42.46a1.4,1.4,0,0,1-2,.24L9.54,15.51A1.4,1.4,0,0,1,10.41,13a1.39,1.39,0,0,1,.86.3l9,7a2,2,0,0,1,1.3-1.72l18.7-5.53a2.11,2.11,0,0,1,.56-.09,1.92,1.92,0,0,1,1.93,1.87V34.56a4.08,4.08,0,0,1-1,2.61L46,40.49A1.4,1.4,0,0,1,46.2,42.46Z"/>
</svg>