<svg width="17" height="15" viewBox="0 0 17 15" xmlns="http://www.w3.org/2000/svg">
<path d="M5.05606 2.94643C4.1743 2.94643 3.45951 3.66596 3.45951 4.55357C3.45951 5.44118 4.1743 6.16071 5.05606 6.16071C5.93783 6.16071 6.65262 5.44118 6.65262 4.55357C6.65262 3.66596 5.9375 2.94643 5.05606 2.94643ZM14.8716 0H2.09911C0.953247 0 0 0.959263 0 2.14286V12.8571C0 14.0407 0.952945 15 2.09881 15H14.8713C16.0471 15 17 14.0407 17 12.8571V2.14286C17.0003 0.959263 16.0756 0 14.8716 0ZM15.4037 12.6328L10.8536 6.40848C10.7704 6.25446 10.5808 6.16071 10.3779 6.16071C10.1746 6.16071 9.98477 6.25339 9.87201 6.40778L6.32632 11.2326L5.09265 9.68903C4.9782 9.54576 4.79549 9.46105 4.60138 9.46105C4.40706 9.46105 4.22452 9.54572 4.10977 9.68903L1.59786 12.83C1.59786 12.829 1.59786 12.831 1.59786 12.83L1.59653 2.14286C1.59653 1.84748 1.83528 1.60714 2.12871 1.60714H14.9012C15.1946 1.60714 15.4333 1.84748 15.4333 2.14286V12.6328H15.4037Z"/>
</svg>
