<svg width="15" height="15" viewBox="0 0 15 15" xmlns="http://www.w3.org/2000/svg">
<path d="M0 7.5C0 3.35742 3.35742 0 7.5 0C11.6426 0 15 3.35742 15 7.5C15 11.6426 11.6426 15 7.5 15C3.35742 15 0 11.6426 0 7.5ZM10.8926 6.20508C11.2119 5.88574 11.2119 5.36426 10.8926 5.04492C10.5732 4.72559 10.0518 4.72559 9.73242 5.04492L6.5625 8.21484L5.26758 6.91992C4.94824 6.60059 4.42676 6.60059 4.10742 6.91992C3.78809 7.23926 3.78809 7.76074 4.10742 8.08008L5.98242 9.95508C6.30176 10.2744 6.82324 10.2744 7.14258 9.95508L10.8926 6.20508Z" />
</svg>
