<svg width="16" height="14" viewBox="0 0 16 14" xmlns="http://www.w3.org/2000/svg">
    <path d="M12.04 0C12.194 0 12.32 0.1253 12.32 0.28C12.32 0.4347 12.194 0.56 12.04 0.56H3.64C3.4853 0.56 3.36 0.4347 3.36 0.28C3.36 0.1253 3.4853 0 3.64 0H12.04ZM15.4 4.48C15.554 4.48 15.68 4.606 15.68 4.76C15.68 4.914 15.554 5.04 15.4 5.04H0.28C0.12537 5.04 0 4.914 0 4.76C0 4.606 0.12537 4.48 0.28 4.48H15.4ZM3.36 9.24C3.36 9.086 3.4853 8.96 3.64 8.96H12.04C12.194 8.96 12.32 9.086 12.32 9.24C12.32 9.394 12.194 9.52 12.04 9.52H3.64C3.4853 9.52 3.36 9.394 3.36 9.24ZM15.4 13.44C15.554 13.44 15.68 13.566 15.68 13.72C15.68 13.874 15.554 14 15.4 14H0.28C0.12537 14 0 13.874 0 13.72C0 13.566 0.12537 13.44 0.28 13.44H15.4Z"/>
</svg>
