<svg width="18" height="14" viewBox="0 0 18 14" xmlns="http://www.w3.org/2000/svg">
    <path d="M11.0862 13.6845C10.8742 13.4758 10.7699 13.1998 10.7699 12.9239C10.7699 12.6479 10.8742 12.3719 11.0862 12.1632L13.5532 9.69289H2.69247C1.20724 9.69289 0 8.48464 0 7.00042V1.07699C0 0.482289 0.481615 0 1.07699 0C1.67236 0 2.15398 0.482289 2.15398 1.07699V7.00042C2.15398 7.29659 2.39596 7.53891 2.69247 7.53891H13.5532L11.0862 5.06857C10.6655 4.64788 10.6655 3.96803 11.0862 3.54733C11.5069 3.12663 12.1868 3.12663 12.6075 3.54733L16.9154 7.85528C17.3361 8.27598 17.3361 8.95583 16.9154 9.37652L12.6075 13.6845C12.1868 14.1052 11.5069 14.1052 11.0862 13.6845Z"/>
</svg>
