<svg width="52" height="40" viewBox="0 0 52 40" xmlns="http://www.w3.org/2000/svg">
    <path opacity="0.4" d="M42.8571 22.8571H31.4286C30.6396 22.8571 30 23.4968 30 24.2857C30 25.0746 30.6429 25.7143 31.4286 25.7143H42.8571C43.6461 25.7143 44.2857 25.0746 44.2857 24.2857C44.2857 23.4968 43.6429 22.8571 42.8571 22.8571ZM17.1429 20C20.2991 20 22.8571 17.442 22.8571 14.2857C22.8571 11.1295 20.2946 8.57143 17.1429 8.57143C13.9911 8.57143 11.4286 11.1339 11.4286 14.2857C11.4286 17.4375 13.9911 20 17.1429 20ZM17.1429 11.4286C18.7179 11.4286 20 12.7107 20 14.2857C20 15.8607 18.7143 17.1429 17.1429 17.1429C15.5714 17.1429 14.2857 15.8571 14.2857 14.2857C14.2857 12.7143 15.5714 11.4286 17.1429 11.4286ZM20 22.8571H14.2857C10.3411 22.8571 7.14286 26.0554 7.14286 30C7.14286 30.7857 7.78214 31.4286 8.57143 31.4286C9.36071 31.4286 10 30.7889 10 30C10 27.6339 11.9196 25.7143 14.2857 25.7143H20C22.367 25.7143 24.2857 27.633 24.2857 30C24.2857 30.7889 24.9254 31.4286 25.7143 31.4286C26.5032 31.4286 27.1429 30.7889 27.1429 30C27.1429 26.0536 23.9464 22.8571 20 22.8571ZM45.7143 0H5.71429C2.55804 0 0 2.55804 0 5.71429V34.2857C0 37.442 2.55804 40 5.71429 40H45.7143C48.8705 40 51.4286 37.442 51.4286 34.2857V5.71429C51.4286 2.55804 48.8661 0 45.7143 0ZM48.5714 34.2857C48.5714 35.8607 47.2893 37.1429 45.7143 37.1429H5.71429C4.13929 37.1429 2.85714 35.8607 2.85714 34.2857V5.71429C2.85714 4.13929 4.13929 2.85714 5.71429 2.85714H45.7143C47.2893 2.85714 48.5714 4.13929 48.5714 5.71429V34.2857ZM42.8571 17.1429H31.4286C30.6396 17.1429 30 17.7825 30 18.5714C30 19.3604 30.6429 20 31.4286 20H42.8571C43.6461 20 44.2857 19.3604 44.2857 18.5714C44.2857 17.7825 43.6429 17.1429 42.8571 17.1429ZM42.8571 11.4286H31.4286C30.6396 11.4286 30 12.0682 30 12.8571C30 13.6461 30.6429 14.2857 31.4286 14.2857H42.8571C43.6461 14.2857 44.2857 13.6461 44.2857 12.8571C44.2857 12.0682 43.6429 11.4286 42.8571 11.4286Z"/>
    <path opacity="0.7" d="M37.3333 0H51.4666V40H37.3333V0Z"/>
</svg>