<svg width="16" height="14" viewBox="0 0 16 14" xmlns="http://www.w3.org/2000/svg">
    <path d="M1.4e-05 0.28C1.4e-05 0.1253 0.12537 0 0.28 0H15.4C15.554 0 15.68 0.1253 15.68 0.28C15.68 0.4347 15.554 0.56 15.4 0.56H0.28C0.12537 0.56 1.4e-05 0.4347 1.4e-05 0.28ZM6.68854 4.76C6.68854 4.606 6.84604 4.48 6.96854 4.48H15.4C15.554 4.48 15.68 4.606 15.68 4.76C15.68 4.914 15.554 5.04 15.4 5.04H6.96854C6.84604 5.04 6.68854 4.914 6.68854 4.76ZM15.4 8.96C15.554 8.96 15.68 9.086 15.68 9.24C15.68 9.394 15.554 9.52 15.4 9.52H6.96854C6.84604 9.52 6.68854 9.394 6.68854 9.24C6.68854 9.086 6.84604 8.96 6.96854 8.96H15.4ZM1.4e-05 13.72C1.4e-05 13.566 0.12537 13.44 0.28 13.44H15.4C15.554 13.44 15.68 13.566 15.68 13.72C15.68 13.874 15.554 14 15.4 14H0.28C0.12537 14 1.4e-05 13.874 1.4e-05 13.72ZM4.23503 6.566C4.50803 6.79 4.50803 7.1785 4.23503 7.434L0.915985 10.164C0.550585 10.465 0 10.206 0 9.7335V4.2665C0 3.794 0.550585 3.5035 0.915985 3.836L4.23503 6.566ZM0.528535 4.2665V9.7335L3.87804 7L0.528535 4.2665Z"/>
</svg>
