<svg width="10" height="14" viewBox="0 0 10 14" xmlns="http://www.w3.org/2000/svg">
    <path d="M4.8125 9.625C6.26254 9.625 7.4375 8.45004 7.4375 7H5.25C5.00937 7 4.8125 6.80313 4.8125 6.5625C4.8125 6.32187 5.00937 6.125 5.25 6.125H7.4375V5.25H5.25C5.00937 5.25 4.8125 5.05313 4.8125 4.8125C4.8125 4.57187 5.00937 4.375 5.25 4.375H7.4375V3.47539H5.25C5.00839 3.47539 4.8125 3.2795 4.8125 3.03789C4.8125 2.79628 5.00839 2.60039 5.25 2.60039L7.4375 2.625C7.4375 1.17496 6.26254 0 4.8125 0C3.36246 0 2.1875 1.17496 2.1875 2.625V7C2.1875 8.44922 3.33867 9.625 4.8125 9.625ZM8.96875 5.25C8.60508 5.25 8.3125 5.54258 8.3125 5.88164V7C8.3125 9.00512 6.61801 10.6203 4.58555 10.4918C2.77867 10.3778 1.3125 8.67098 1.3125 6.86055V5.88164C1.3125 5.54258 1.01855 5.25 0.65625 5.25C0.293945 5.25 0 5.54258 0 5.88164V6.76074C0 9.21238 1.74918 11.3982 4.15625 11.7291V12.6875H3.0625C2.56512 12.6875 2.16453 13.1026 2.18859 13.6054C2.19926 13.8305 2.40078 14 2.625 14H7C7.22482 14 7.42574 13.83 7.43641 13.6054C7.45937 13.1031 7.06016 12.6875 6.5625 12.6875H5.46875V11.7641C7.81211 11.4434 9.625 9.43086 9.625 7V5.88164C9.625 5.54258 9.33242 5.25 8.96875 5.25Z"/>
</svg>
