<svg width="19" height="14" viewBox="0 0 19 14" xmlns="http://www.w3.org/2000/svg">
    <path d="M13.9745 5.61533C13.9745 3.04316 11.8876 0.957177 9.3163 0.957177C6.745 0.957177 4.65815 3.0417 4.65815 5.61533V10.2735H13.9745V5.61533ZM9.3163 3.28625C8.02949 3.28625 6.98723 4.33143 6.98723 5.61533C6.98723 5.87246 6.7823 6.08114 6.52141 6.08114C6.26053 6.08114 6.0556 5.87153 6.0556 5.61533C6.0556 3.81728 7.51826 2.35462 9.3163 2.35462C9.57719 2.35462 9.78212 2.56331 9.78212 2.82044C9.78212 3.07757 9.55212 3.28625 9.3163 3.28625ZM14.9061 11.2051H3.72652C3.21412 11.2051 2.79489 11.6226 2.79489 12.1367V13.0684C2.79489 13.5825 3.21412 14 3.72652 14H14.9061C15.4185 14 15.8377 13.5825 15.8377 13.0684V12.1367C15.8377 11.6214 15.4185 11.2051 14.9061 11.2051ZM15.9949 2.21197L17.3924 1.28034C17.7091 1.06603 17.793 0.632853 17.5786 0.311441C17.3644 -0.00997171 16.9358 -0.0967297 16.6097 0.117662L15.2123 1.04929C14.8955 1.2636 14.8117 1.69677 15.026 2.01819C15.2409 2.36627 15.6689 2.4507 15.9949 2.21197ZM17.9339 4.9166H16.0706C15.6887 4.9166 15.3719 5.22957 15.3719 5.61533C15.3719 6.00108 15.6887 6.31405 16.0706 6.31405H17.9339C18.3153 6.31405 18.6326 5.99963 18.6326 5.61533C18.6326 5.23103 18.3153 4.9166 17.9339 4.9166ZM3.26071 5.61533C3.26071 5.22957 2.94395 4.9166 2.56198 4.9166H0.698723C0.316754 4.9166 0 5.23103 0 5.61533C0 5.99963 0.316754 6.31405 0.698723 6.31405H2.56198C2.94337 6.31405 3.26071 5.99963 3.26071 5.61533ZM2.63651 2.21197C2.96258 2.42621 3.39113 2.33957 3.60541 2.01819C3.81965 1.69677 3.73584 1.26357 3.41914 1.04929L2.0217 0.117662C1.69557 -0.071401 1.26702 0.015357 1.05274 0.336769C0.838467 0.658182 0.922314 1.09139 1.23907 1.30566L2.63651 2.21197Z"/>
</svg>
