<svg width="13" height="14" viewBox="0 0 13 14" xmlns="http://www.w3.org/2000/svg">
    <path d="M0.4375 0.875273L1.75 0.875V6.84687C1.75 9.17519 3.50383 11.2109 5.82695 11.3668C8.37539 11.5336 10.5 9.51289 10.5 7V0.875L11.8125 0.875268C12.0532 0.875268 12.25 0.678092 12.25 0.437495C12.25 0.196848 12.0531 0 11.8125 0L8.3125 0.000267969C8.0719 0.000267969 7.875 0.196842 7.875 0.437495C7.875 0.678125 8.07187 0.875 8.3125 0.875H9.625V6.88242C9.625 8.74754 8.21598 10.3742 6.35469 10.4945C4.31484 10.623 2.625 9.00977 2.625 7V0.875H3.9375C4.17813 0.875 4.375 0.678125 4.375 0.4375C4.375 0.196848 4.17815 0.000273438 3.9375 0.000273438L0.4375 0C0.196902 0 0 0.196848 0 0.4375C0 0.678125 0.196902 0.875273 0.4375 0.875273ZM11.8125 13.125H0.4375C0.196902 13.125 0 13.3219 0 13.5625C0 13.8031 0.196902 14 0.4375 14H11.8125C12.0532 14 12.25 13.8031 12.25 13.5625C12.25 13.3219 12.0531 13.125 11.8125 13.125Z"/>
</svg>
