<svg width="13" height="13" viewBox="0 0 13 13" xmlns="http://www.w3.org/2000/svg">
    <path d="M12.8544 10.5879L7.43858 1.3457C7.02395 0.634766 5.9776 0.634766 5.56018 1.3457L0.146894 10.5879C-0.269767 11.2963 0.249193 12.1875 1.08432 12.1875H11.916C12.7478 12.1875 13.2683 11.2988 12.8544 10.5879ZM5.88975 4.26562C5.88975 3.9292 6.1627 3.65625 6.49913 3.65625C6.83555 3.65625 7.1085 3.93047 7.1085 4.26562V7.51562C7.1085 7.85205 6.83555 8.125 6.52198 8.125C6.2084 8.125 5.88975 7.85332 5.88975 7.51562V4.26562ZM6.49913 10.5625C6.05835 10.5625 5.70084 10.205 5.70084 9.76422C5.70084 9.32344 6.05809 8.96594 6.49913 8.96594C6.94016 8.96594 7.29741 9.32344 7.29741 9.76422C7.29639 10.2045 6.94092 10.5625 6.49913 10.5625Z"/>
</svg>
