<svg width="15" height="15" viewBox="0 0 15 15" xmlns="http://www.w3.org/2000/svg">
<path d="M6.16071 15C5.7154 15 5.35714 14.6267 5.35714 14.1667C5.35714 13.7066 5.7154 13.3333 6.16071 13.3333L14.1964 13.3333C14.6401 13.3333 15 13.7066 15 14.1667C15 14.6267 14.6401 15 14.1964 15L6.16071 15ZM0.803572 10.5556C0.358259 10.5556 0 10.184 0 9.72222C0 9.26042 0.358259 8.88889 0.803572 8.88889L14.1964 8.88889C14.6401 8.88889 15 9.26042 15 9.72222C15 10.184 14.6401 10.5556 14.1964 10.5556L0.803572 10.5556ZM15 5.27778C15 5.73958 14.6401 6.11111 14.1964 6.11111L6.16071 6.11111C5.7154 6.11111 5.35714 5.73958 5.35714 5.27778C5.35714 4.81597 5.7154 4.44444 6.16071 4.44444L14.1964 4.44444C14.6401 4.44444 15 4.81597 15 5.27778ZM0.803572 1.66667C0.358259 1.66667 0 1.29514 0 0.833333C0 0.371527 0.358259 -9.53674e-07 0.803572 -9.53674e-07L14.1964 -9.53674e-07C14.6401 -9.53674e-07 15 0.371527 15 0.833333C15 1.29514 14.6401 1.66667 14.1964 1.66667L0.803572 1.66667Z"/>
</svg>
