<svg width="15" height="15" viewBox="0 0 15 15" xmlns="http://www.w3.org/2000/svg">
<path d="M4.01786 15C3.57255 15 3.21429 14.6267 3.21429 14.1667C3.21429 13.7066 3.57255 13.3333 4.01786 13.3333L10.9821 13.3333C11.4275 13.3333 11.7857 13.7066 11.7857 14.1667C11.7857 14.6267 11.4275 15 10.9821 15L4.01786 15ZM0.803572 10.5556C0.358259 10.5556 0 10.184 0 9.72222C0 9.26042 0.358259 8.88889 0.803572 8.88889L14.1964 8.88889C14.6401 8.88889 15 9.26042 15 9.72222C15 10.184 14.6401 10.5556 14.1964 10.5556L0.803572 10.5556ZM11.7857 5.27778C11.7857 5.73958 11.4275 6.11111 10.9821 6.11111L4.01786 6.11111C3.57255 6.11111 3.21429 5.73958 3.21429 5.27778C3.21429 4.81597 3.57255 4.44444 4.01786 4.44444L10.9821 4.44444C11.4275 4.44444 11.7857 4.81597 11.7857 5.27778ZM0.803572 1.66667C0.358259 1.66667 0 1.29514 0 0.833333C0 0.371527 0.358259 -9.53674e-07 0.803572 -9.53674e-07L14.1964 -9.53674e-07C14.6401 -9.53674e-07 15 0.371527 15 0.833333C15 1.29514 14.6401 1.66667 14.1964 1.66667L0.803572 1.66667Z"/>
</svg>
