<svg width="9" height="11" viewBox="0 0 9 11" xmlns="http://www.w3.org/2000/svg">
<path d="M4.10466 6.50593C3.91074 6.28982 3.79277 5.90918 3.79277 5.49906C3.79277 5.08895 3.91074 4.70831 4.10466 4.5143L8.00968 0.192156C8.21064 -0.0509653 8.46219 -0.0607882 8.6675 0.147952C8.87284 0.356692 9 0.749615 9 1.17692L9 9.82121C9 10.2475 8.87284 10.6407 8.6675 10.8494C8.46219 11.0579 8.21064 11.0493 8.00968 10.8271L4.10466 6.50593Z"/>
<path d="M0.311934 6.50593C0.118018 6.28982 4.19617e-05 5.90918 4.19617e-05 5.49906C4.19617e-05 5.08895 0.118018 4.70831 0.311934 4.5143L4.21695 0.192156C4.41792 -0.0509653 4.66947 -0.0607882 4.87477 0.147952C5.08012 0.356692 5.20728 0.749615 5.20728 1.17692L5.20728 9.82121C5.20728 10.2475 5.08012 10.6407 4.87477 10.8494C4.66947 11.0579 4.41792 11.0493 4.21695 10.8271L0.311934 6.50593Z" />
</svg>
