<svg width="100" height="100" viewBox="0 0 100 100" fill="none" xmlns="http://www.w3.org/2000/svg">
<rect className="primary" width="100" height="100" />
<path className="secondary" d="M70.3125 22H29.6875C27.0986 22 25 24.1106 25 26.7143V61.2857C25 63.8884 27.0986 66 29.6875 66H70.3125C72.9014 66 75 63.8894 75 61.2857V26.7143C75 24.1106 72.9004 22 70.3125 22ZM29.6875 64.4286C27.9648 64.4286 26.5625 63.0182 26.5625 61.2857V56.2463L36.9434 45.8062C37.2485 45.4992 37.743 45.4992 38.0479 45.8062L45.7656 53.568L34.9707 64.4286H29.6875ZM73.4375 61.2857C73.4375 63.0182 72.0352 64.4286 70.3125 64.4286H37.1777L61.9531 39.5116C62.2583 39.2047 62.7527 39.2047 63.0576 39.5116L73.4375 49.9616V61.2857ZM73.4375 47.742L64.1572 38.4087C63.2417 37.4909 61.7588 37.4909 60.8428 38.4087L46.875 52.4562L39.0723 44.6875C38.1567 43.7698 36.6738 43.7698 35.7578 44.6875L26.5625 54.0277V26.7143C26.5625 24.9818 27.9648 23.5714 29.6875 23.5714H70.3125C72.0352 23.5714 73.4375 24.9818 73.4375 26.7143V47.742ZM37.5 29.0714C34.4795 29.0714 32.0312 31.5366 32.0312 34.5714C32.0312 37.6062 34.4795 40.0714 37.5 40.0714C40.5205 40.0714 42.9688 37.6062 42.9688 34.5714C42.9688 31.5366 40.5176 29.0714 37.5 29.0714ZM37.5 38.5C35.3418 38.5 33.5938 36.742 33.5938 34.5714C33.5938 32.4048 35.3467 30.6429 37.5 30.6429C39.6533 30.6429 41.4062 32.4009 41.4062 34.5714C41.4062 36.742 39.6582 38.5 37.5 38.5Z" >
<path className="secondary" d="M29.5527 72.4688V81H28.416L24.1211 74.4199V81H22.9902V72.4688H24.1211L28.4336 79.0664V72.4688H29.5527ZM38.125 76.4648V77.0039C38.125 77.6445 38.0449 78.2188 37.8848 78.7266C37.7246 79.2344 37.4941 79.666 37.1934 80.0215C36.8926 80.377 36.5312 80.6484 36.1094 80.8359C35.6914 81.0234 35.2227 81.1172 34.7031 81.1172C34.1992 81.1172 33.7363 81.0234 33.3145 80.8359C32.8965 80.6484 32.5332 80.377 32.2246 80.0215C31.9199 79.666 31.6836 79.2344 31.5156 78.7266C31.3477 78.2188 31.2637 77.6445 31.2637 77.0039V76.4648C31.2637 75.8242 31.3457 75.252 31.5098 74.748C31.6777 74.2402 31.9141 73.8086 32.2188 73.4531C32.5234 73.0938 32.8848 72.8203 33.3027 72.6328C33.7246 72.4453 34.1875 72.3516 34.6914 72.3516C35.2109 72.3516 35.6797 72.4453 36.0977 72.6328C36.5195 72.8203 36.8809 73.0938 37.1816 73.4531C37.4863 73.8086 37.7188 74.2402 37.8789 74.748C38.043 75.252 38.125 75.8242 38.125 76.4648ZM37.0059 77.0039V76.4531C37.0059 75.9453 36.9531 75.4961 36.8477 75.1055C36.7461 74.7148 36.5957 74.3867 36.3965 74.1211C36.1973 73.8555 35.9531 73.6543 35.6641 73.5176C35.3789 73.3809 35.0547 73.3125 34.6914 73.3125C34.3398 73.3125 34.0215 73.3809 33.7363 73.5176C33.4551 73.6543 33.2129 73.8555 33.0098 74.1211C32.8105 74.3867 32.6562 74.7148 32.5469 75.1055C32.4375 75.4961 32.3828 75.9453 32.3828 76.4531V77.0039C32.3828 77.5156 32.4375 77.9688 32.5469 78.3633C32.6562 78.7539 32.8125 79.084 33.0156 79.3535C33.2227 79.6191 33.4668 79.8203 33.748 79.957C34.0332 80.0938 34.3516 80.1621 34.7031 80.1621C35.0703 80.1621 35.3965 80.0938 35.6816 79.957C35.9668 79.8203 36.207 79.6191 36.4023 79.3535C36.6016 79.084 36.752 78.7539 36.8535 78.3633C36.9551 77.9688 37.0059 77.5156 37.0059 77.0039ZM44.0078 72.4688V81H42.877V72.4688H44.0078ZM46.4219 72.4688H47.5176L50.3125 79.4238L53.1016 72.4688H54.2031L50.7344 81H49.8789L46.4219 72.4688ZM46.0645 72.4688H47.0312L47.1895 77.6719V81H46.0645V72.4688ZM53.5879 72.4688H54.5547V81H53.4297V77.6719L53.5879 72.4688ZM59.8047 73.2246L56.9805 81H55.8262L59.0781 72.4688H59.8223L59.8047 73.2246ZM62.1719 81L59.3418 73.2246L59.3242 72.4688H60.0684L63.332 81H62.1719ZM62.0254 77.8418V78.7676H57.2324V77.8418H62.0254ZM70.709 76.752V79.875C70.6035 80.0312 70.4355 80.207 70.2051 80.4023C69.9746 80.5938 69.6562 80.7617 69.25 80.9062C68.8477 81.0469 68.3281 81.1172 67.6914 81.1172C67.1719 81.1172 66.6934 81.0273 66.2559 80.8477C65.8223 80.6641 65.4453 80.3984 65.125 80.0508C64.8086 79.6992 64.5625 79.2734 64.3867 78.7734C64.2148 78.2695 64.1289 77.6992 64.1289 77.0625V76.4004C64.1289 75.7637 64.2031 75.1953 64.3516 74.6953C64.5039 74.1953 64.7266 73.7715 65.0195 73.4238C65.3125 73.0723 65.6719 72.8066 66.0977 72.627C66.5234 72.4434 67.0117 72.3516 67.5625 72.3516C68.2148 72.3516 68.7598 72.4648 69.1973 72.6914C69.6387 72.9141 69.9824 73.2227 70.2285 73.6172C70.4785 74.0117 70.6387 74.4609 70.709 74.9648H69.5781C69.5273 74.6562 69.4258 74.375 69.2734 74.1211C69.125 73.8672 68.9121 73.6641 68.6348 73.5117C68.3574 73.3555 68 73.2773 67.5625 73.2773C67.168 73.2773 66.8262 73.3496 66.5371 73.4941C66.248 73.6387 66.0098 73.8457 65.8223 74.1152C65.6348 74.3848 65.4941 74.7109 65.4004 75.0938C65.3105 75.4766 65.2656 75.9082 65.2656 76.3887V77.0625C65.2656 77.5547 65.3223 77.9941 65.4355 78.3809C65.5527 78.7676 65.7188 79.0977 65.9336 79.3711C66.1484 79.6406 66.4043 79.8457 66.7012 79.9863C67.002 80.127 67.334 80.1973 67.6973 80.1973C68.0996 80.1973 68.4258 80.1641 68.6758 80.0977C68.9258 80.0273 69.1211 79.9453 69.2617 79.8516C69.4023 79.7539 69.5098 79.6621 69.584 79.5762V77.666H67.6094V76.752H70.709ZM78.0039 80.0801V81H73.4863V80.0801H78.0039ZM73.7148 72.4688V81H72.584V72.4688H73.7148ZM77.4062 76.1367V77.0566H73.4863V76.1367H77.4062ZM77.9453 72.4688V73.3945H73.4863V72.4688H77.9453Z" />
</svg>
