<svg width="14" height="11" viewBox="0 0 14 11" xmlns="http://www.w3.org/2000/svg">
<path d="M9.10001 3.78125C9.10001 1.69297 7.06346 0 4.55003 0C2.0366 0 4.05552e-05 1.69297 4.05552e-05 3.78125C4.05552e-05 4.63139 0.341727 5.4132 0.911569 6.0457C0.553039 6.74953 0.0534154 7.27719 0.0455404 7.28492C-0.000396943 7.33229 -0.0128657 7.40255 0.0140186 7.4644C0.0416029 7.52598 0.100709 7.5625 0.167603 7.5625C1.00651 7.5625 1.71547 7.32359 2.26191 7.04602C2.93566 7.37129 3.71441 7.5625 4.55003 7.5625C7.06346 7.5625 9.10001 5.86953 9.10001 3.78125ZM13.1163 9.53262C13.6675 8.89238 14 8.09102 14 7.21875C14 5.13047 12.1188 3.4375 9.80001 3.4375C9.79313 3.4375 9.78647 3.43838 9.77959 3.43842C9.78908 3.55137 9.80001 3.66523 9.80001 3.78125C9.80001 5.90004 8.05702 7.67422 5.72909 8.13184C6.18409 9.77754 7.81158 11 9.80001 11C10.537 11 11.2289 10.828 11.8311 10.5278C12.3638 10.7852 13.0397 11 13.8316 11C13.8985 11 13.9576 10.9629 13.9851 10.9011C14.012 10.8392 13.9995 10.769 13.9536 10.7216C13.9475 10.7143 13.4728 10.2115 13.1163 9.53262Z"/>
</svg>
