<svg width="11" height="7" viewBox="0 0 11 7" xmlns="http://www.w3.org/2000/svg">
<path d="M0 3.5C0 1.56625 1.23114 0 2.75 0H4.5375C4.76609 0 4.95 0.234062 4.95 0.525C4.95 0.815937 4.76609 1.05 4.5375 1.05H2.75C1.68678 1.05 0.825 2.14594 0.825 3.5C0.825 4.85406 1.68678 5.95 2.75 5.95H4.5375C4.76609 5.95 4.95 6.18406 4.95 6.475C4.95 6.76594 4.76609 7 4.5375 7H2.75C1.23114 7 0 5.43375 0 3.5ZM8.25 7H6.4625C6.23391 7 6.05 6.76594 6.05 6.475C6.05 6.18406 6.23391 5.95 6.4625 5.95H8.25C9.31391 5.95 10.175 4.85406 10.175 3.5C10.175 2.14594 9.31391 1.05 8.25 1.05H6.4625C6.23391 1.05 6.05 0.815937 6.05 0.525C6.05 0.234062 6.23391 0 6.4625 0H8.25C9.76938 0 11 1.56625 11 3.5C11 5.43375 9.76938 7 8.25 7ZM7.2875 2.975C7.51609 2.975 7.7 3.20906 7.7 3.5C7.7 3.79094 7.51609 4.025 7.2875 4.025H3.7125C3.48391 4.025 3.3 3.79094 3.3 3.5C3.3 3.20906 3.48391 2.975 3.7125 2.975H7.2875Z"/>
</svg>
