<svg width="15" height="15" viewBox="0 0 15 15" xmlns="http://www.w3.org/2000/svg">
<path d="M0.955198 0.205928C1.20028 -0.0686426 1.59784 -0.0686426 1.84292 0.205928L4.17941 2.82422L5.71736 1.10332C6.45233 0.279463 7.64503 0.279463 8.38 1.10332L12.34 5.54004C13.0776 6.36328 13.0776 7.69922 12.34 8.52246L7.35993 14.1035C6.3791 15.2021 4.78883 15.2021 3.808 14.1035L0.73549 10.6611C-0.245163 9.5625 -0.245163 7.78125 0.73549 6.68262L3.29273 3.81738L0.955198 1.20029C0.710119 0.925781 0.710119 0.480469 0.955198 0.205928ZM5.9763 6.7998L4.17941 4.81348L1.62321 7.67871C1.43149 7.89258 1.31458 8.15918 1.27299 8.4375H10.6425L11.4533 7.50293C11.6992 7.25391 11.6992 6.80859 11.4533 6.5332L7.46979 2.09766C7.24746 1.82314 6.8499 1.82314 6.60403 2.09766L5.0687 3.81738L6.84205 5.83008C7.10884 6.10547 7.10884 6.55078 6.84205 6.7998C6.61973 7.09863 6.22216 7.09863 5.9763 6.7998ZM11.6521 13.125C11.6521 12.3867 12.5048 10.793 12.9912 9.94043C13.1508 9.66504 13.5013 9.66504 13.6608 9.94043C14.1473 10.793 15 12.3867 15 13.125C15 14.1592 14.2493 15 13.326 15C12.4027 15 11.6521 14.1592 11.6521 13.125Z"/>
</svg>
