<svg width="12" height="14" viewBox="0 0 12 14" xmlns="http://www.w3.org/2000/svg">
<path d="M9.49375 6.55312C9.55887 6.49569 9.63156 6.44978 9.69328 6.38741C10.4033 5.67147 10.788 4.72147 10.7783 3.71272C10.7594 1.66594 9.075 0 7.02812 0H0.75C0.335938 0 0 0.335938 0 0.75C0 1.16406 0.335938 1.5 0.75 1.5H1.5V12.5H0.75C0.335938 12.5 0 12.8375 0 13.25C0 13.6625 0.335938 14 0.75 14H7.5C9.70594 14 11.5 12.2059 11.5 10C11.5 8.525 10.6594 7.24687 9.49375 6.55312ZM7.02812 1.5C8.25656 1.5 9.26531 2.5 9.27812 3.72844C9.28398 4.33281 9.05253 4.90219 8.62687 5.33281C8.20312 5.7625 7.63437 6 7.02812 6H3V1.5H7.02812ZM7.5 12.5H3V7.5H7.5C8.87906 7.5 10 8.62125 10 10.0003C10 11.3794 8.87812 12.5 7.5 12.5Z"/>
</svg>
