<svg width="15" height="15" viewBox="0 0 15 15" xmlns="http://www.w3.org/2000/svg">
<path d="M13.7096 8.50313C13.3104 8.38594 12.8954 8.61544 12.7802 9.01281C12.1037 11.3719 9.93231 13 7.47344 13C5.39481 13 3.51177 11.8038 2.58384 10H5.72068C6.13466 10 6.47053 9.66406 6.47053 9.25C6.47053 8.83594 6.16434 8.5 5.7488 8.5H0.749844C0.335868 8.5 0 8.83594 0 9.25V14.25C0 14.6641 0.335868 15 0.749844 15C1.16382 15 1.49969 14.6641 1.49969 14.25V11.0594C2.74318 13.1375 5.00521 14.5 7.47344 14.5C10.5665 14.5 13.3285 12.4278 14.1939 9.45938C14.3376 9.03438 14.1064 8.64688 13.7096 8.50313ZM14.2502 0C13.8377 0 13.5003 0.335938 13.5003 0.75V3.94063C12.2599 1.86094 9.99479 0.5 7.50156 0.5C4.40846 0.5 1.64434 2.57219 0.7814 5.54063C0.665174 5.9375 0.893564 6.35312 1.29098 6.46875C1.69215 6.58691 2.10612 6.35547 2.22047 5.95906C2.8994 3.62813 5.07082 2 7.50156 2C9.58019 2 11.4632 3.19625 12.3912 5H9.2512C8.83878 5 8.50135 5.3375 8.50135 5.75C8.50135 6.1625 8.83878 6.5 9.2512 6.5H14.2502C14.6641 6.5 15 6.16406 15 5.75V0.75C15 0.335938 14.6657 0 14.2502 0Z" />
</svg>
