<svg width="300" height="60" viewBox="0 0 300 60" xmlns="http://www.w3.org/2000/svg">
    <path d="M43.6847 58.8974L21.9437 25.2054L42.9841 0.84375H31.3882C24.3795 9.59417 13.0147 23.2591 9.49079 27.76V0.84375H0V59.161H9.49079V38.469L15.2763 32.2974L32.3199 59.1569H43.8553L43.6847 58.8934V58.8974Z" />
    <path d="M73.2558 0.84375H61.2616L43.6846 58.8974L43.6135 59.161H53.0688L57.5706 44.308H76.8544L81.5625 59.161H91.6685L73.2558 0.84375ZM59.697 35.2534C62.9649 23.8511 65.6639 14.4519 66.9227 8.98594H66.9938C68.1922 13.9532 70.6244 21.9048 74.6817 35.2534H59.697Z" />
    <path d="M120.123 0C104.374 0 95.3347 13.1256 95.3347 30.0061C95.3347 46.8865 103.734 60 119.448 60C135.161 60 144.2 45.9215 144.2 29.7587C144.2 12.0916 134.891 0 120.123 0ZM119.821 51.0022C110.103 51.0022 105.284 41.5463 105.284 29.7466C105.284 17.9469 109.665 9.01399 119.714 9.01399C129.763 9.01399 134.265 18.3443 134.265 29.8966C134.265 41.4489 130.357 51.0022 119.824 51.0022H119.821Z" />
    <path d="M196.551 0.84375V59.161H206.138V0.84375H196.551Z" />
    <path d="M237.38 24.0576C228.87 21.7666 226.463 19.9459 226.463 15.4045C226.463 10.863 229.439 8.29628 234.524 8.29628C241.412 8.29628 243.532 12.3268 244.197 16.4547H253.879C253.165 8.22734 247.888 0 234.791 0C222.929 0 216.624 6.95411 216.624 16.6047C216.624 24.5969 220.315 29.9939 233.593 33.5947C242.852 36.0925 245.345 38.5619 245.345 43.6832C245.345 48.3747 242.596 51.5902 235.989 51.5902C229.383 51.5902 225.702 48.6099 224.454 42.3572H214.771C215.934 52.4174 222.324 59.9554 235.264 59.9554C248.204 59.9554 255.177 52.6242 255.177 42.3978C255.177 34.434 252.151 28.0719 237.383 24.0535L237.38 24.0576Z" />
    <path d="M258.673 0.84375V9.91045H274.543V59.161H284.155V9.91045H300V0.84375H258.676H258.673Z" />
    <path d="M189.652 50.1064H154.175V59.161H189.652V50.1064Z" />
    <path d="M163.772 0.717773H154.175V9.84125H163.772V0.717773Z" />
    <path d="M163.772 13.4502H154.175V22.5737H163.772V13.4502Z" />
    <path d="M163.772 25.8457H154.175V34.9692H163.772V25.8457Z" />
    <path d="M163.772 38.2617H154.175V47.3852H163.772V38.2617Z" />
    <path d="M188.628 4.38379H167.307V6.17603H188.628V4.38379Z" />
    <path d="M188.628 17.1152H167.307V18.9075H188.628V17.1152Z" />
    <path d="M188.628 29.5107H167.307V31.303H188.628V29.5107Z" />
    <path d="M188.628 41.9277H167.307V43.72H188.628V41.9277Z" />
</svg>