<svg width="15" height="15" viewBox="0 0 15 15" xmlns="http://www.w3.org/2000/svg">
<path d="M14.2969 6.96126L8.41406 6.96461C8.17201 6.88228 7.17451 6.55581 7.17451 6.55581C4.73145 5.74926 4.05469 5.04951 4.2832 3.56631C4.56794 1.71147 6.67734 1.40646 8.39941 1.71047C8.89072 1.79631 9.47607 1.97523 10.2404 2.27295C10.6122 2.41839 11.0203 2.19597 11.1495 1.77676C11.2788 1.35725 11.0811 0.899228 10.7083 0.754256C9.86074 0.424102 9.19717 0.223251 8.61973 0.121804C5.55762 -0.415563 3.24902 0.858047 2.87549 3.29177C2.59014 5.1466 3.31055 6.25482 4.29199 6.96461L0.703125 6.96126C0.314941 6.96126 0 7.32118 0 7.73467C0 8.14816 0.314941 8.50807 0.703125 8.50807H14.2969C14.6851 8.50807 15 8.14816 15 7.73467C15 7.32118 14.6865 6.96126 14.2969 6.96126ZM10.5967 10.1788C10.7461 10.5223 10.794 10.9237 10.7156 11.4333C10.4309 13.2875 8.32233 13.5921 6.59353 13.2888C5.83503 13.1606 4.95056 12.8023 4.17009 12.4863L3.76758 12.3249C3.39492 12.1763 2.9874 12.3956 2.85527 12.814C2.72361 13.2325 2.91855 13.6919 3.29033 13.8399L3.68496 13.9989C4.52754 14.3401 5.48262 14.7271 6.37617 14.8785C6.84375 14.9598 7.29492 15 7.72559 15C10.1013 15 11.8066 13.7699 12.123 11.7075C12.2123 11.1266 12.1998 10.6244 12.1165 10.1788H10.5967Z"/>
</svg>
