<svg width="15" height="15" viewBox="0 0 15 15" xmlns="http://www.w3.org/2000/svg">
<path d="M9.375 1.60714C8.92969 1.60714 8.57143 1.24721 8.57143 0.803571C8.57143 0.359933 8.92969 0 9.375 0H14.1964C14.6417 0 15 0.359933 15 0.803571V5.625C15 6.07031 14.6417 6.42857 14.1964 6.42857C13.7511 6.42857 13.3929 6.07031 13.3929 5.625V2.74219L6.69978 9.37835C6.41518 9.71987 5.90625 9.71987 5.59152 9.37835C5.28013 9.09375 5.28013 8.58482 5.59152 8.27009L12.2578 1.60714H9.375ZM0 2.94643C0 1.91083 0.839397 1.07143 1.875 1.07143H5.625C6.07031 1.07143 6.42857 1.43136 6.42857 1.875C6.42857 2.32031 6.07031 2.67857 5.625 2.67857H1.875C1.72701 2.67857 1.60714 2.79911 1.60714 2.94643V13.125C1.60714 13.2723 1.72701 13.3929 1.875 13.3929H12.0536C12.2009 13.3929 12.3214 13.2723 12.3214 13.125V9.375C12.3214 8.92969 12.6797 8.57143 13.125 8.57143C13.5703 8.57143 13.9286 8.92969 13.9286 9.375V13.125C13.9286 14.1596 13.0882 15 12.0536 15H1.875C0.839397 15 0 14.1596 0 13.125V2.94643Z" />
</svg>
