<svg width="13" height="13" viewBox="0 0 13 13" xmlns="http://www.w3.org/2000/svg">
<path d="M6.5 0C2.9119 0 0 2.9119 0 6.5C0 10.0881 2.9119 13 6.5 13C10.0881 13 13 10.0881 13 6.5C13 2.9119 10.0881 0 6.5 0ZM9.13931 9.56391C9.02923 9.56391 8.96109 9.52984 8.85887 9.46956C7.22339 8.48407 5.32056 8.44214 3.44133 8.82742C3.33911 8.85363 3.20544 8.89556 3.12944 8.89556C2.8752 8.89556 2.71532 8.69375 2.71532 8.48145C2.71532 8.21149 2.8752 8.08306 3.07177 8.04113C5.21835 7.56673 7.4121 7.60867 9.28347 8.72782C9.44335 8.83004 9.5377 8.92177 9.5377 9.16028C9.5377 9.39879 9.35161 9.56391 9.13931 9.56391V9.56391ZM9.84435 7.84456C9.70806 7.84456 9.61633 7.78427 9.52198 7.73448C7.88387 6.76472 5.44113 6.37419 3.26835 6.96391C3.14254 6.99798 3.0744 7.03206 2.95645 7.03206C2.67601 7.03206 2.44798 6.80403 2.44798 6.52359C2.44798 6.24314 2.58427 6.05706 2.85423 5.98105C3.58286 5.77661 4.32722 5.6246 5.41754 5.6246C7.11855 5.6246 8.7619 6.04657 10.0567 6.81714C10.269 6.94294 10.3528 7.10544 10.3528 7.33347C10.3502 7.61653 10.13 7.84456 9.84435 7.84456V7.84456ZM10.6569 5.84738C10.5206 5.84738 10.4367 5.81331 10.3188 5.74516C8.45262 4.63125 5.11613 4.36391 2.95645 4.96673C2.8621 4.99294 2.74415 5.03488 2.61835 5.03488C2.27238 5.03488 2.00766 4.76492 2.00766 4.41633C2.00766 4.05988 2.22782 3.85806 2.46371 3.78992C3.38629 3.51996 4.41895 3.39153 5.54335 3.39153C7.45665 3.39153 9.46169 3.78992 10.9268 4.64435C11.1312 4.7623 11.2649 4.9248 11.2649 5.23669C11.2649 5.59315 10.9766 5.84738 10.6569 5.84738V5.84738Z" />
</svg>
